<?xml version="1.0" encoding="utf-8"?>
<!-- Generator: Adobe Illustrator 27.5.0, SVG Export Plug-In . SVG Version: 6.00 Build 0)  -->
<svg version="1.1" id="Layer_1" xmlns="http://www.w3.org/2000/svg" xmlns:xlink="http://www.w3.org/1999/xlink" x="0px" y="0px"
	 viewBox="0 0 1350 900" style="enable-background:new 0 0 1350 900;" xml:space="preserve">
<rect style="fill:#FFFFFF;" width="1350" height="900"/>
<path style="opacity:0.31;fill:#526473;" d="M1302,676v30.811c-7.404,15.338-31.496,23.746-40.348,30.213
	c-3.855,2.815-8.875,5.385-14.831,7.719c-69.729,27.321-269.862,23.602-269.862,23.602s-120.591,41.442-201.331,51.068
	c-76.356,9.11-145.779,13.982-223.651,12.237c-68.419-1.544-96.566-1.179-214.492-9.879
	c-152.131-11.223-164.43-16.614-164.43-16.614s-16.98-11.536-37.874-26.75c-33.472-24.365-76.987-58.147-76.738-68.952
	c0.12-5.152,1.723-15.547,3.331-24.793c0.533-3.097,1.07-6.063,1.55-8.662H1302z"/>
<path style="fill:#2E79CC;" d="M1290.113,617.674c-0.17,1.377-0.339,2.698-0.509,3.962c-1.277,9.695-2.43,15.779-2.43,15.779
	s-81.894,1.219-150.041,2.878c8.827-17.052,13.683-36.485,13.075-57.146c-1.865-63.329-54.447-114.008-117.904-113.681
	c-64.516,0.333-116.716,52.655-116.716,117.146c0,21.344,5.81,41.299,15.805,58.545c-150.109,1.546-377.499,1.648-528.851,0.237
	c10.423-17.874,16.354-38.678,15.943-60.955c-1.177-63.767-53.851-115.196-117.731-114.975
	c-64.609,0.224-116.92,52.588-116.92,117.147c0,18.183,4.273,35.34,11.678,50.701c-73.596-7.676-142.817-18.77-142.817-18.77
	s-6.41-67.564-6.647-89.551c5.212,0.316,10.503,0.689,15.816,1.084c1.221,0.09,2.431,0.192,3.652,0.282
	c0.102,0,0.203,0.012,0.305,0.023c2.521,0.203,5.042,0.406,7.563,0.609c0.113,0,0.226,0.011,0.339,0.023
	c1.82,0.158,3.618,0.305,5.426,0.463c3.493,0.293,6.952,0.598,10.367,0.903c9.915,0.88,19.467,1.772,28.184,2.54
	c0.384,0.023,0.758,0.056,1.131,0.09c1.323,0.124,2.634,0.237,3.912,0.339c0.848,0.079,1.673,0.147,2.498,0.215
	c1.323,0.113,2.611,0.226,3.878,0.327c0.249,0.011,0.497,0.034,0.746,0.057c13.023,1.038,23.051,1.58,27.856,1.016
	c1.65-0.192,3.312-1.129,5.053-2.698c0.011,0,0.011,0,0.011,0c0.294-0.248,0.588-0.53,0.882-0.824
	c0.452-0.44,0.904-0.914,1.357-1.422c0.147-0.169,0.305-0.35,0.463-0.531c0.317-0.361,0.633-0.722,0.938-1.106
	c0.317-0.384,0.645-0.779,0.961-1.197c1.628-2.065,3.346-4.47,5.211-7.144c0.373-0.542,0.746-1.084,1.13-1.637
	c0.385-0.553,0.78-1.117,1.176-1.693c0.396-0.576,0.791-1.163,1.21-1.749c0.407-0.598,0.825-1.197,1.243-1.806
	c0.215-0.305,0.43-0.609,0.645-0.914c0.43-0.621,0.87-1.242,1.311-1.874c0.441-0.632,0.893-1.275,1.357-1.919
	c0.463-0.643,0.927-1.298,1.402-1.953c0.475-0.655,0.961-1.321,1.458-1.986c0.735-0.993,1.492-2.009,2.273-3.036
	c19.693-25.881,52.229-57.665,115.368-59.934c48.566-1.738,80.707,15.994,104.086,39.109c0.395,0.395,0.791,0.779,1.176,1.174
	c0.384,0.384,0.768,0.779,1.153,1.174c0.757,0.779,1.515,1.569,2.261,2.37c8.569,9.154,15.907,18.962,22.463,28.624
	c2.273,3.353,4.466,6.693,6.568,9.989c0.532,0.824,1.063,1.648,1.583,2.472c1.029,1.625,2.046,3.24,3.041,4.831
	c1.006,1.591,2.001,3.183,2.974,4.74c0.972,1.547,1.933,3.07,2.872,4.571c1.424,2.257,2.826,4.447,4.216,6.569
	c3.674,5.643,7.236,10.734,10.819,15c0.237,0.271,0.486,0.553,0.768,0.813c29.372,29.057,314.484,45.416,401.751,49.771
	c13.37,0.667,24.835-9.372,25.961-22.69c0.012-0.147,0.025-0.295,0.038-0.443c0.057-0.722,0.125-1.467,0.192-2.212
	c1.097-11.58,3.302-25.926,7.631-40.949c0.17-0.621,0.35-1.242,0.543-1.862c0.633-2.145,1.311-4.3,2.046-6.456
	c0.26-0.79,0.543-1.58,0.826-2.37c0.305-0.892,0.633-1.784,0.961-2.664c0.317-0.869,0.645-1.727,0.984-2.596
	c6.738-17.326,16.686-34.572,31.326-48.703c1.447-1.399,2.951-2.765,4.489-4.097c0,0,0.011,0,0.011-0.011
	c1.029-0.892,2.081-1.761,3.143-2.619c1.617-1.286,3.279-2.551,4.997-3.77c1.141-0.813,2.295-1.603,3.47-2.37
	c0.011,0,0.011-0.011,0.011-0.011c1.187-0.779,2.386-1.524,3.618-2.257c1.232-0.734,2.487-1.456,3.776-2.167
	c2.544-1.4,5.2-2.72,7.937-3.939c3.436-1.546,7.031-2.946,10.784-4.21c3.731-1.253,7.631-2.359,11.701-3.296
	c0.825-0.181,1.662-0.372,2.487-0.553c10.016-2.122,21.016-3.273,33.101-3.25c16.404,0.034,30.954,1.794,43.841,4.955
	c2.419,0.587,4.77,1.23,7.077,1.919c1.537,0.463,3.041,0.937,4.534,1.433c2.227,0.745,4.397,1.535,6.511,2.37
	c1.402,0.553,2.792,1.129,4.161,1.727c0.678,0.294,1.356,0.598,2.024,0.903c1.334,0.61,2.657,1.23,3.945,1.885
	c1.289,0.643,2.566,1.309,3.81,1.987c1.244,0.677,2.464,1.377,3.663,2.088c1.209,0.711,2.385,1.434,3.538,2.179
	c1.741,1.117,3.425,2.257,5.065,3.442c0.543,0.395,1.085,0.79,1.616,1.185c1.606,1.196,3.166,2.427,4.681,3.691
	c1.006,0.835,1.989,1.693,2.962,2.551c1.447,1.298,2.849,2.619,4.217,3.962c35.358,34.964,41.109,86.367,41.495,113.012
	c0.14,9.663,8.001,17.432,17.681,17.406l101.853-0.268H1290.113z"/>
<path style="fill:#3E2219;" d="M1150.259,586.612c0,19.368-4.794,37.586-13.126,53.681c-3.911,0.09-7.778,0.192-11.588,0.293
	c-23.232,0.598-44.101,1.242-58.458,1.896c-2.725,0.124-5.731,0.248-9.021,0.361c-0.87,0.034-1.764,0.068-2.668,0.101
	c-11.577,0.395-26.251,0.756-43.468,1.083c-0.689,0.012-1.379,0.023-2.08,0.045c-19.75,0.361-42.745,0.689-68.169,0.971
	c-3.38,0.034-6.817,0.079-10.288,0.113c-9.994-17.246-15.805-37.202-15.805-58.545c0-64.697,52.534-117.148,117.335-117.148
	C1097.724,469.465,1150.259,521.915,1150.259,586.612z"/>
<path style="fill:#3E2219;" d="M418.504,586.612c0,21.457-5.879,41.491-15.963,58.783c-5.437-0.045-10.773-0.102-16.008-0.158
	c-24.385-0.248-46.487-0.542-65.592-0.88c-0.814-0.011-1.616-0.034-2.408-0.045c-20.372-0.372-37.205-0.79-49.561-1.253
	c-1.051-0.045-2.057-0.09-3.041-0.124c-3.505-0.147-6.591-0.294-9.247-0.452c-17.5-1.016-37.013-2.709-56.944-4.74
	c-1.402-0.136-2.815-0.282-4.228-0.429c-7.405-15.362-11.678-32.518-11.678-50.701c0-64.697,52.535-117.148,117.335-117.148
	C365.969,469.465,418.504,521.915,418.504,586.612z"/>
<path style="fill:#3791F4;" d="M1290.825,540.936c-0.327-2.205-0.732-4.34-1.22-6.404c-7.403-32.154-31.499-49.788-40.347-63.339
	c-3.859-5.904-8.879-11.288-14.831-16.186c-63.582-52.231-235.569-50.353-265.424-49.615c-2.883,0.07-5.714-0.789-8.077-2.449
	c-20.693-14.551-125.238-86.378-197.694-104.487c-76.359-19.096-145.784-29.314-223.652-25.654
	c-68.417,3.237-96.565,2.468-214.49,20.712c-115.088,17.801-150.15,28.602-160.404,32.808c-2.401,0.987-4.462,2.635-5.945,4.769
	c-4.995,7.186-19.223,27.788-35.955,53.34c-3.114,4.75-6.311,9.667-9.554,14.705c-31.589,49.058-67.306,109.128-67.184,129.762
	l15.814,1.18c1.22,0.09,2.433,0.18,3.653,0.282c0.103,0,0.205,0.013,0.302,0.019c2.523,0.192,5.047,0.397,7.563,0.609
	c0.116,0,0.231,0.013,0.34,0.026c1.811,0.148,3.621,0.301,5.425,0.462c3.493,0.295,6.953,0.596,10.369,0.904
	c2.857,0.256,5.682,0.506,8.469,0.756c6.883,0.622,13.509,1.231,19.717,1.782c0.379,0.026,0.758,0.058,1.13,0.09
	c1.323,0.115,2.632,0.224,3.91,0.34c0.847,0.077,1.676,0.147,2.498,0.212c1.323,0.115,2.613,0.218,3.878,0.333
	c0.25,0.006,0.494,0.032,0.745,0.051c13.027,1.039,23.05,1.571,27.846,1.007c1.65-0.192,3.313-1.128,5.066-2.686
	c0.013,0,0.013,0,0.013,0c0.289-0.269,0.584-0.545,0.88-0.827c0.443-0.436,0.88-0.91,1.355-1.417
	c0.148-0.173,0.308-0.353,0.462-0.532c0.308-0.353,0.623-0.724,0.944-1.109c0.315-0.385,0.629-0.788,0.957-1.192
	c1.618-2.07,3.345-4.481,5.214-7.147c0.359-0.539,0.745-1.083,1.13-1.635c0.385-0.558,0.777-1.122,1.175-1.692
	c0.398-0.577,0.79-1.167,1.214-1.75c0.404-0.603,0.822-1.199,1.239-1.808c0.218-0.308,0.43-0.609,0.649-0.917
	c0.43-0.615,0.867-1.237,1.31-1.872c0.437-0.634,0.892-1.276,1.355-1.917c0.462-0.648,0.925-1.301,1.4-1.955
	c0.475-0.654,0.963-1.32,1.464-1.987c0.732-1.006,1.49-2.006,2.273-3.032c19.692-25.885,52.224-57.666,115.364-59.936
	c48.565-1.737,80.706,15.994,104.089,39.109c0.392,0.385,0.777,0.776,1.175,1.173c0.385,0.384,0.764,0.782,1.149,1.173
	c0.758,0.782,1.515,1.57,2.26,2.372c8.571,9.154,15.91,18.961,22.465,28.622c2.286,3.365,4.469,6.705,6.568,9.994
	c0.533,0.82,1.066,1.647,1.586,2.468c1.027,1.628,2.042,3.244,3.037,4.833c1.008,1.59,2.003,3.179,2.973,4.737
	c0.976,1.551,1.939,3.07,2.876,4.57c1.425,2.263,2.825,4.449,4.212,6.571c3.685,5.647,7.249,10.724,10.831,15
	c0.225,0.276,0.475,0.545,0.758,0.814c30.793,30.462,342.611,46.968,412.961,50.32c7.467,0.353,13.811-5.429,14.106-12.891
	c0.128-3.16,0.34-6.795,0.687-10.795c0.051-0.718,0.122-1.461,0.186-2.211c1.098-11.577,3.306-25.923,7.634-40.949
	c0.167-0.622,0.353-1.237,0.546-1.859c0.629-2.147,1.31-4.301,2.042-6.455c0.263-0.795,0.546-1.583,0.828-2.372
	c0.302-0.891,0.629-1.782,0.957-2.667c0.321-0.865,0.648-1.724,0.989-2.596c6.735-17.327,16.687-34.57,31.326-48.699
	c1.445-1.391,2.947-2.769,4.488-4.103c0,0,0.013,0,0.013-0.006c1.027-0.891,2.08-1.763,3.14-2.622
	c1.618-1.288,3.281-2.551,4.995-3.769c1.143-0.814,2.299-1.603,3.474-2.372c0.013,0,0.013-0.006,0.013-0.006
	c1.188-0.782,2.382-1.526,3.615-2.263c1.233-0.731,2.485-1.455,3.775-2.167c2.543-1.385,5.188-2.705,7.936-3.936
	c3.435-1.545,7.03-2.949,10.786-4.212c3.743-1.244,7.64-2.346,11.698-3.295c0.828-0.18,1.663-0.372,2.491-0.551
	c10.029-2.115,21.027-3.263,33.098-3.243c16.404,0.026,30.953,1.795,43.846,4.942c2.414,0.603,4.771,1.244,7.075,1.923
	c1.535,0.462,3.037,0.936,4.533,1.43c2.228,0.75,4.398,1.551,6.51,2.372c1.4,0.551,2.793,1.128,4.16,1.731
	c0.681,0.288,1.355,0.596,2.023,0.897c1.335,0.615,2.658,1.231,3.948,1.885c1.291,0.647,2.562,1.314,3.807,1.987
	c1.245,0.68,2.465,1.378,3.666,2.09c1.207,0.712,2.382,1.436,3.538,2.18c1.74,1.115,3.422,2.269,5.066,3.442
	c0.539,0.397,1.085,0.788,1.612,1.186c1.605,1.205,3.165,2.436,4.68,3.692c1.008,0.833,1.99,1.692,2.966,2.551
	c1.445,1.295,2.844,2.616,4.212,3.962c37.194,36.769,41.631,91.73,41.521,116.942c-0.038,7.461,6.048,13.506,13.522,13.481
	l105.99-0.288h0.507c0.738-6,1.458-13.07,2.003-20.756c0.167-2.372,0.327-4.808,0.449-7.288
	C1293.355,574.109,1293.22,556.802,1290.825,540.936z"/>
<path style="fill:#2E79CC;" d="M1246.363,491.41c-19.274-14.106-56.013-20.342-92.719-23.227
	c-23.559-1.852-14.539,16.373-5.058,29.665c5.291,7.417,7.207,13.298,24.487,13.909c23.026,0.814,91.75,1.045,91.75,1.045
	S1252.584,495.963,1246.363,491.41z"/>
<path style="fill:#BDD3D9;" d="M1247.565,490.48c-17.441-12.765-50.687-18.408-83.903-21.018
	c-21.319-1.675-13.157,14.816-4.577,26.844c4.788,6.712,6.521,12.034,22.159,12.587c20.837,0.736,83.316,3.7,83.316,3.7
	S1253.195,494.6,1247.565,490.48z"/>
<path style="fill:#E2F9FF;" d="M1251.021,499.932c-0.948,6.123-9.103,9.946-18.214,8.539c-9.111-1.407-15.729-7.51-14.78-13.633
	c0.948-6.123,9.103-9.946,18.214-8.539C1245.352,487.706,1251.969,493.81,1251.021,499.932z"/>
<path style="fill:#E2F9FF;" d="M1223.562,496.297c-1.321,8.527-12.678,13.852-25.368,11.893
	c-12.689-1.959-21.906-10.46-20.585-18.987c1.321-8.527,12.678-13.852,25.368-11.893
	C1215.667,479.268,1224.883,487.769,1223.562,496.297z"/>
<path style="fill:#8BAAB0;" d="M1175.69,504.601c1.03,1.459,1.927,2.852,2.873,4.129c-13.172-1.045-14.966-6.102-19.483-12.421
	c-8.571-12.039-16.742-28.523,4.584-26.848c32.604,2.554,65.225,8.042,82.914,20.33c-18.087-6.649-42.204-10.148-66.305-12.039
	C1158.947,476.078,1167.119,492.562,1175.69,504.601z"/>
<path style="fill:#2E79CC;" d="M892.474,414.078l2.287,76.149c0,42.698-3.379,59.581-13.609,76.958
	c-3.752,6.384-13.724,23.242-47.922,20.59c-55.921-4.478-185.793-15.341-207.44-18.434c-25.807-3.694-26.058-10.017-26.994-33.533
	c-0.122-2.995-0.251-6.247-0.441-9.774c-1.716-31.004-1.045-114.396-1.038-115.234l-6.479-0.128
	c-0.007,0.839,0.159,86.925,1.875,118.066c0.197,3.504,0.325,6.735,0.441,9.705c0.964,24.103,3.492,30.654,32.202,34.767
	c21.716,3.109,151.676,13.972,207.631,18.45c2.536,0.206,4.958,0.305,7.258,0.305c30.488,0,40.393-16.828,43.811-22.632
	c10.374-17.621,15.997-35.408,15.997-78.852l-1.736-76.387L892.474,414.078z"/>
<path style="fill:#2E79CC;" d="M680.954,446.276c0,1.07-0.206,2.096-0.579,3.038c-1.278,3.244-4.548,5.558-8.35,5.558h-50.078
	c-2.837,0-5.373-1.288-7.018-3.295c-1.192-1.462-1.911-3.301-1.911-5.301c0-4.724,4.022-8.59,8.929-8.59h50.078
	C676.939,437.687,680.954,441.552,680.954,446.276z"/>
<path style="fill:#CCCCCC;" d="M680.954,443.071c0,1.071-0.199,2.096-0.559,3.038c-1.233,3.244-4.385,5.558-8.051,5.558h-48.289
	c-2.735,0-5.181-1.288-6.767-3.295c-1.149-1.462-1.843-3.301-1.843-5.301c0-4.724,3.878-8.59,8.61-8.59h48.289
	C677.082,434.482,680.954,438.347,680.954,443.071z"/>
<path style="fill:#B0B0B0;" d="M680.395,446.11c-1.233,3.244-4.385,5.558-8.051,5.558h-48.289c-2.735,0-5.181-1.288-6.767-3.295
	c1.233-3.237,4.385-5.558,8.051-5.558h48.289C676.363,442.815,678.815,444.103,680.395,446.11z"/>
<path style="fill:#2E79CC;" d="M1259.705,578.307c-8.64-0.27-15.178,14.399,0,18.955c15.177,4.555,32.604,3.515,32.604,3.515
	l0.584-22.47C1292.894,578.307,1268.345,578.577,1259.705,578.307z"/>
<path style="fill:#FFD08F;" d="M1263.165,576.765c-7.74-0.242-13.595,12.898,0,16.979c13.595,4.08,29.206,3.148,29.206,3.148
	l0.523-20.127C1292.894,576.765,1270.904,577.007,1263.165,576.765z"/>
<path style="fill:#B06E59;" d="M341.696,305.126l-0.465,9.137l-4.518,88.702L213.687,387.99l-13.171-1.609
	c0-20.778,15.115-49.881,34.88-56.382L341.696,305.126z"/>
<path style="opacity:0.37;fill:#FFD09A;" d="M230.413,381.744L230.413,381.744c0-16.203,11.78-38.889,27.194-43.959l82.878-19.393
	l-3.885,76.281L230.413,381.744z"/>
<path style="fill:#B06E59;" d="M594.16,293.518c-0.315,10.912-0.631,22.105-0.947,33.398c-0.764,27.975-1.528,56.647-2.309,83.776
	c-0.017,0.63-0.033,1.26-0.05,1.891c-0.017,0.116-0.017,0.215-0.017,0.332c-3.122-0.182-6.328-0.348-9.617-0.531
	c-0.067,0-0.149-0.017-0.232-0.017c-49.33-2.653-117.03-5.307-175.313-7.96c-20.031-0.912-38.949-1.824-55.625-2.72
	c-2.276-0.133-4.501-0.265-6.694-0.381c2.541-25.753,6.444-62.567,9.202-90.228c0.266-2.636,0.515-5.174,0.764-7.611
	C384.565,297.398,559.28,290.201,594.16,293.518z"/>
<path style="opacity:0.37;fill:#FFD09A;" d="M585.855,306.668c-0.947,33.049-1.893,68.935-2.84,102.001
	c-22.572-1.294-50.692-2.57-80.057-3.847c-14.716-0.647-29.764-1.294-44.58-1.94c-19.499-0.846-38.617-1.675-56.073-2.521
	c-10.996-0.547-21.327-1.078-30.711-1.608c2.358-24.095,6.145-59.499,8.521-83.594c25.911-5.025,167.473-10.978,202.884-8.706
	C584.044,306.518,585.008,306.585,585.855,306.668z"/>
<path style="fill:#B06E59;" d="M909.739,419.547c-64.328-1.741-128.64-3.466-192.952-5.207
	c-38.102-1.028-76.221-2.056-114.323-3.084c1.113-26.3,2.226-52.601,3.339-78.901c0.548-12.951,1.096-25.886,1.644-38.837
	c33.219,0,76.404,1.658,136.198,16.583c65.275,16.301,106.134,48.19,121.249,61.357C885.024,389.002,899.69,406.264,909.739,419.547
	z"/>
<path style="opacity:0.37;fill:#FFD09A;" d="M870.973,419.547c-20.912-0.564-41.806-1.128-62.701-1.691
	c-3.903-0.1-7.807-0.215-11.71-0.315c-31.059-0.846-62.103-1.675-93.162-2.521c-1.113-0.033-2.242-0.066-3.355-0.083
	c-31.973-0.879-63.946-1.725-95.92-2.587c0.964-22.851,1.927-45.686,2.907-68.521c0.1-2.537,0.216-5.091,0.315-7.628
	c0.366-8.706,0.748-17.395,1.113-26.101c28.834,0,66.338,1.443,118.276,14.394c56.672,14.162,92.166,41.855,105.287,53.298
	C849.514,393.015,862.236,408.006,870.973,419.547z"/>
<g>
	<path style="fill:#554341;" d="M398.957,595.98c0,17.822-4.499,34.595-12.424,49.256c-17.568,32.484-51.981,54.561-91.56,54.561
		c-42.552,0-79.135-25.509-95.234-62.056c-5.63-12.777-8.761-26.908-8.761-41.762c0-57.349,46.566-103.829,103.995-103.829
		C352.403,492.151,398.957,538.631,398.957,595.98z"/>
	<ellipse style="fill:#2C2120;" cx="294.97" cy="584.562" rx="65.27" ry="65.165"/>
	<ellipse style="fill:#968684;" cx="294.97" cy="595.975" rx="53.838" ry="53.752"/>
	<path style="fill:#5F7478;" d="M332.527,595.309c0,21.989-17.855,39.816-39.896,39.816c-22.024,0-39.879-17.827-39.879-39.816
		c0-1.691,0.1-3.35,0.316-4.975c2.441,19.65,19.234,34.841,39.564,34.841c20.347,0,37.139-15.19,39.581-34.841
		C332.428,591.959,332.527,593.618,332.527,595.309z"/>
	<ellipse style="fill:#AF9794;" cx="293.529" cy="588.693" rx="38.202" ry="38.141"/>
</g>
<g>
	<path style="fill:#554341;" d="M1136.421,594.321c0,16.626-3.911,32.337-10.875,46.265c-17.037,34.12-52.331,57.552-93.12,57.552
		c-38.979,0-72.94-21.411-90.745-53.094c-8.434-15-13.238-32.303-13.238-50.724c0-57.349,46.554-103.829,103.983-103.829
		C1089.866,490.492,1136.421,536.972,1136.421,594.321z"/>
	<ellipse style="fill:#2C2120;" cx="1032.43" cy="582.904" rx="65.27" ry="65.165"/>
	<ellipse style="fill:#968684;" cx="1032.43" cy="594.317" rx="53.838" ry="53.752"/>
	<path style="fill:#5F7478;" d="M1069.987,593.651c0,21.989-17.855,39.815-39.896,39.815c-22.024,0-39.879-17.827-39.879-39.815
		c0-1.692,0.1-3.35,0.316-4.975c2.442,19.651,19.234,34.841,39.564,34.841c20.347,0,37.139-15.19,39.58-34.841
		C1069.887,590.301,1069.987,591.959,1069.987,593.651z"/>
	<ellipse style="fill:#AF9794;" cx="1030.988" cy="587.034" rx="38.202" ry="38.141"/>
</g>
<path style="opacity:0.51;fill:#78C6CC;" d="M235.395,330l106.3-24.874l-0.465,9.137c-29.997,8.988-58.482,21.956-84.243,38.953
	c-17.905,11.807-32.255,24.095-43.301,34.774l-13.171-1.609C200.516,365.603,215.63,336.5,235.395,330z"/>
<path style="fill:#87391E;" d="M341.696,305.126l-0.315,6.218l-101.002,23.631c-18.42,6.053-32.804,31.74-34.664,52.037l-5.199-0.63
	c0-20.778,15.115-49.881,34.88-56.382L341.696,305.126z"/>
<path style="opacity:0.51;fill:#78C6CC;" d="M594.16,293.518c-0.315,10.912-0.631,22.105-0.947,33.398
	c-75.39-30.795-162.523-36.45-240.654-15.837c0.266-2.636,0.515-5.174,0.764-7.611C384.565,297.398,559.28,290.201,594.16,293.518z"
	/>
<path style="fill:#A55432;" d="M405.676,404.407c61.737,2.106,123.491,4.195,185.229,6.285c-0.017,0.63-0.033,1.26-0.05,1.891
	c-3.206-0.066-6.411-0.133-9.634-0.199c-0.067,0-0.149-0.017-0.232-0.017C531.658,409.714,463.958,407.06,405.676,404.407z"/>
<path style="opacity:0.37;fill:#FFD09A;" d="M393.185,394.673l9.119,5.688c-10.996-0.547-21.327-1.078-30.711-1.608
	c2.358-24.095,6.145-59.499,8.521-83.594c25.911-5.025,167.473-10.978,202.884-8.706L393.185,394.673z"/>
<path style="fill:#3E2219;" d="M405.676,404.407c-20.031-0.912-38.949-1.824-55.625-2.72c2.973-22.453,5.946-44.94,8.919-67.393
	c15.447-5.754,25.246-2.056,28.236-0.73C405.659,341.757,415.99,371.225,405.676,404.407z"/>
<path style="fill:#87391E;" d="M659.928,414.023c-20.031-0.912-38.949-1.824-55.625-2.72c2.973-22.453,5.946-44.94,8.919-67.393
	c15.447-5.754,25.246-2.056,28.236-0.73C659.911,351.372,670.242,380.84,659.928,414.023z"/>
<path style="fill:#87391E;" d="M594.16,293.518c-0.067,2.189-0.133,4.394-0.183,6.616c-35.279-3.283-209.462,3.914-240.654,9.966
	c-0.249,2.438-0.498,4.975-0.764,7.611c-2.525,25.372-6.029,58.455-8.554,83.628c-0.216-0.017-0.432-0.017-0.648-0.033
	c2.541-25.753,6.444-62.567,9.202-90.228c0.266-2.636,0.515-5.174,0.764-7.611C384.565,297.398,559.28,290.201,594.16,293.518z"/>
<path style="fill:#A55432;" d="M808.272,417.856c-3.903-0.1-7.807-0.215-11.71-0.315c5.415-23.15,11.743-40.645,14.633-40.015
	C814.002,378.157,812.656,395.569,808.272,417.856z"/>
<path style="opacity:0.51;fill:#78C6CC;" d="M909.739,419.547c-64.328-1.741-128.64-3.466-192.952-5.207
	c-19.068-21.723-38.069-37.726-54.529-49.516c-17.623-12.619-36.574-23.465-56.456-32.469c0.548-12.951,1.096-25.886,1.644-38.837
	c33.219,0,76.404,1.658,136.198,16.583c65.275,16.301,106.134,48.19,121.249,61.357C885.024,389.002,899.69,406.264,909.739,419.547
	z"/>
<path style="fill:#87391E;" d="M909.739,419.547c-4.701-0.133-9.417-0.249-14.118-0.381c-9.783-12.404-23.17-27.461-40.693-42.734
	c-15.115-13.167-55.974-45.055-121.249-61.357c-54.114-13.499-94.624-16.152-126.448-16.533c0.066-1.675,0.149-3.35,0.216-5.025
	c33.219,0,76.404,1.658,136.198,16.583c65.275,16.301,106.134,48.19,121.249,61.357C885.024,389.002,899.69,406.264,909.739,419.547
	z"/>
<path style="fill:#6EAEF4;" d="M1234.424,455.006c-30.603-10.779-85.364-32.8-160.249-40.43
	c-33.796-3.443-64.337-3.198-90.281-1.377c-26.971,1.893-47.451-6.845-68.469-23.827c-46.734-37.758-96.26-65.718-125.277-77.017
	c-53.473-20.824-98.377-26.096-144.502-31.502c-49.132-5.779-99.507-7.348-167.756-3.318
	c-59.906,3.534-141.587,17.036-240.316,39.453c-44.102,10.013-84.022,33.408-114.326,66.93l-0.462,0.511
	c20.892-31.897,37.872-56.085,37.872-56.085s12.3-11.298,164.432-34.831c117.923-18.24,146.073-17.472,214.491-20.712
	c77.869-3.657,147.294,6.558,223.648,25.655c80.741,20.181,201.332,107.068,201.332,107.068S1164.694,397.725,1234.424,455.006z"/>
<polygon style="fill:#3A2E2C;" points="883.164,412.914 903.225,434.885 914.722,419.547 885.561,393.611 "/>
<path style="fill:#3791F4;" d="M894.344,409.37c-3.214,10.509-22.885,13.826-43.938,7.409
	c-21.052-6.418-23.114-13.252-26.795-23.607c-11.936-33.572,17.382-20.867,38.434-14.45S897.557,398.861,894.344,409.37z"/>
<path style="fill:#2E79CC;" d="M894.334,409.37c-3.205,10.515-22.876,13.821-43.92,7.405c-6.453-1.957-11.124-3.966-14.597-6.09
	c2.688,0.73,5.816,1.359,9.464,1.917c21.762,3.29,40.732-2.852,42.379-13.716c0.384-2.497-0.195-5.014-1.558-7.47
	C892.747,397.264,896.049,403.763,894.334,409.37z"/>
<path style="fill:#6EAEF4;" d="M102.588,509.244c3.679,3.367,17.793,11.083,31.461,7.051c9.708-2.864,16.421-6.968,18.619-8.333
	c23.734-14.739,44.869-41.225,53.29-48.718c36.395-32.381,79.614-26.485,79.614-32.051c0-1.923-26.131-3.648-61.637,11.538
	c-22.354,9.561-55.858,36.538-77.046,42.949C111.591,492.359,71.769,481.039,102.588,509.244z"/>
<path style="fill:#6EAEF4;" d="M861.598,385.99c-0.78,3.09-9.078,3.665-18.533,1.285s-16.488-6.814-15.708-9.904
	c0.78-3.09,9.078-3.665,18.533-1.285S862.378,382.9,861.598,385.99z"/>
<path style="fill:#6EAEF4;" d="M1137.574,475.27c0.893,0.19,1.174-6.695,6.421-10.897c4.36-3.492,9.92-3.318,12.841-3.205
	c34.069,1.322,71.268,12.821,71.268,12.821c3.647,1.127,8.791,2.758,14.767,6.41c6.755,4.128,21.83,13.461,21.83,13.461
	s5.136,6.41,0,0c-6.42-7.692-7.063-7.692-17.977-16.667c-32.585-26.792-84.414-27.284-97.592-22.436
	c-1.739,0.64-6.01,2.273-8.989,6.41C1135.827,467.161,1136.631,475.07,1137.574,475.27z"/>
<path style="fill:#2E79CC;" d="M97.984,533.135c-2.787-0.25-5.612-0.5-8.469-0.756c-3.416-0.308-6.877-0.609-10.369-0.904
	c-1.804-0.16-3.615-0.314-5.425-0.462c-0.109-0.013-0.225-0.026-0.34-0.026c-2.517-0.212-5.04-0.417-7.563-0.609
	c-0.096-0.006-0.199-0.019-0.302-0.019c-1.22-0.103-2.433-0.192-3.653-0.282l-15.814-1.18
	c-0.122-20.634,35.595-80.705,67.184-129.762c0.09-0.051,0.18-0.096,0.27-0.147c-23.114,45.513-35.955,62.82-48.154,89.743
	c-3.339,7.372-7.018,15.635-5.136,23.077C62.941,522.609,78.029,529.186,97.984,533.135z"/>
<g>
	<path style="fill:#5A2B2B;" d="M492.591,332.948c1.234,0.008,1.443,5.186,6.014,10.161c2.723,2.964,5.863,4.625,8.278,5.596
		c-6.655,5.823-13.31,11.646-19.964,17.469C489.295,339.589,491.19,332.939,492.591,332.948z"/>
	<path style="fill:#7D5959;" d="M526.308,415.318c0.242,2.035-6.191,17.866-6.364,19.106l-0.064,2.174l-1.284,44.334
		c-0.278,2.016-1.753,3.662-3.726,4.164l-30.275,7.686l-6.364,1.615c-1.551,0.395-3.195,0.025-4.426-0.988l-1.12-0.924
		c-1.645-1.358-2.247-3.605-1.505-5.602c0.301-0.8,0.386-1.652,0.262-2.481c-0.055-0.367-0.154-0.732-0.291-1.087
		c-4.824-12.267-13.722-35.217-20.746-53.384c-1.615-4.172-3.129-8.089-4.476-11.568c-3.447-8.917-5.773-14.944-5.773-14.944
		c-84.287-17.354-4.22-11.616,1.675-13.036c15.679-3.779,33.021-12.963,55.389-11.773c1.489,0.078,2.859,0.837,3.742,2.039
		l25.295,34.504C526.284,415.189,526.301,415.244,526.308,415.318z"/>
	<path style="fill:#FFA471;" d="M487.914,378.759l-1.249,16.131c0,0-19.134,1.773-27.839-4.478c0,0,5.676-7.652,1.793-23.28
		c-0.606-2.446-1.425-5.062-2.518-7.845c-0.711-1.818-1.535-3.704-2.491-5.661l11.713,4.282l12.206,4.459
		c0,0-0.034,8.624,2.742,13.401C483.511,377.896,485.309,379.261,487.914,378.759z"/>
	<path style="fill:#E07F4F;" d="M479.53,362.366c0,0-0.034,8.624,2.742,13.401c-0.628,0.989-1.425,1.754-2.353,2.163
		c-2.836,1.242-6.305-1.145-12.169-5.178c-2.836-1.951-5.208-3.893-7.13-5.621c-0.606-2.446-1.425-5.062-2.518-7.845
		c1.896-1.111,5.397-1.617,9.221-1.379L479.53,362.366z"/>
	<path style="fill:#FFA471;" d="M486.862,315.46c0.141,0.268,0.286,0.59,0.44,0.959c0.461,1.096,0.974,2.59,1.486,4.171
		c0.935,2.884,1.887,6.064,2.583,7.663c1.09,2.504,2.989,5.383,3.198,5.862c6.93,18.296-4.007,34.942-4.007,34.942
		s-28.329,4.033-38.397-13.71c-10.454-18.415-15.763-48.746,11.584-57.662C472.68,294.773,480.495,303.36,486.862,315.46z"/>
	<path style="fill:#E07F4F;" d="M477.75,355.959c0.078-0.593,2.715,0.059,6.573-1.099c6.351-1.905,9.833-6.86,10.546-6.241
		c0.383,0.332-0.476,1.889-0.895,2.651c-0.966,1.752-3.035,5.504-7.155,6.663C482.339,359.193,477.645,356.764,477.75,355.959z"/>
	<g>
		<path style="fill:#FFFFFF;" d="M475.366,333.493c0.418,0.755-0.221,1.912-1.527,3.019c-0.692,0.589-1.571,1.163-2.579,1.658
			c-0.06,0.028-0.118,0.06-0.174,0.086c-2.848,1.353-5.629,1.547-6.255,0.412c-0.642-1.151,1.193-3.247,4.102-4.675
			C471.845,332.562,474.722,332.337,475.366,333.493z"/>
		<path style="fill:#257FA7;" d="M473.839,336.512c-0.692,0.589-1.571,1.163-2.579,1.658c-0.06,0.028-0.118,0.06-0.174,0.086
			c-0.538-0.133-1.052-0.447-1.455-0.921c-0.936-1.108-0.898-2.674,0.085-3.507c0.989-0.831,2.542-0.607,3.478,0.501
			C473.743,334.979,473.956,335.788,473.839,336.512z"/>
		<path style="fill:#FFFFFF;" d="M471.896,333.994c0.234,0.276,0.224,0.669-0.022,0.876c-0.246,0.207-0.635,0.152-0.869-0.125
			c-0.234-0.276-0.224-0.669,0.022-0.876C471.272,333.662,471.662,333.718,471.896,333.994z"/>
		<path style="fill:#643C3A;" d="M475.543,333.492c-0.807-0.192-3.989-0.43-7.14,1.463c-2.695,1.619-4.063,4.551-4.063,4.551
			l-3.169-0.434c0,0,3.709-3.935,6.523-5.22c3.626-1.655,7.017-1.946,7.017-1.946S475.438,332.964,475.543,333.492z"/>
	</g>
	<g>
		<path style="fill:#FFFFFF;" d="M480.765,331.848c0.358,0.785,1.669,0.963,3.338,0.576c0.886-0.204,1.872-0.566,2.871-1.078
			c0.058-0.031,0.118-0.059,0.172-0.088c2.786-1.476,4.601-3.59,4.061-4.768c-0.543-1.201-3.322-0.979-6.205,0.501
			C482.116,328.471,480.22,330.643,480.765,331.848z"/>
		<path style="fill:#257FA7;" d="M487.665,331.184c0.793-0.445,1.636-1.07,2.45-1.842c0.047-0.047,0.097-0.09,0.14-0.133
			c0.061-0.55-0.056-1.14-0.362-1.682c-0.718-1.26-2.203-1.766-3.325-1.133c-1.123,0.639-1.45,2.172-0.732,3.432
			C486.258,330.565,486.944,331.044,487.665,331.184z"/>
		<path style="fill:#FFFFFF;" d="M486.019,328.012c0.083,0.352,0.404,0.578,0.718,0.505c0.314-0.074,0.501-0.419,0.418-0.771
			c-0.083-0.352-0.404-0.578-0.718-0.505C486.123,327.314,485.936,327.66,486.019,328.012z"/>
		<path style="fill:#643C3A;" d="M480.659,331.989c0.327-0.761,2.032-3.454,5.434-4.851c2.909-1.195,6.082-0.544,6.082-0.544
			l1.54-2.799c0,0-5.376,0.627-8.086,2.117c-3.493,1.919-5.749,4.465-5.749,4.465S480.298,331.59,480.659,331.989z"/>
	</g>
	<path style="fill:#FFA471;" d="M490.273,340.664c-0.685-2.888-4.405-2.017-6.937-5.936c-1.697-2.626-2.331-6.584-2.173-7.261
		c0.006-0.025,0.036-0.145-0.005-0.169c-0.178-0.105-1.477,1.75-1.736,2.151c-1.868,2.89-0.874,9.362,3.173,13.021
		c0.359,0.325,3.902,3.527,6.151,2.287C489.96,344.088,490.64,342.21,490.273,340.664z"/>
	<path style="fill:#E07F4F;" d="M481.554,325.487c0.064,0.01-0.161,1.206-0.159,2.178c0.005,2.635,1.678,4.634,2.81,5.986
		c3.166,3.783,7.558,5.306,9.487,5.859c-2.374,4.42-3.786,6.537-4.237,6.35c-0.349-0.145-0.121-1.676,0.686-4.593
		c-1.559-0.71-4.933-2.519-7.173-6.304c-0.718-1.212-2.28-3.852-1.941-7.062C481.139,326.838,481.484,325.476,481.554,325.487z"/>
	<path style="fill:#643C3A;" d="M455.155,330.484c-0.38-0.865,4.217-3.65,7.274-5.162c2.343-1.159,8.125-4.018,9.841-2.148
		c0.532,0.58,0.573,1.505,0.374,2.152c-0.528,1.715-2.968,2.21-7.948,3.328C456.492,330.495,455.337,330.898,455.155,330.484z"/>
	<path style="fill:#643C3A;" d="M488.121,315.743c1.268,0.383,2.512,2.181,1.552,4.17c-3.93,1.734-5.985,2.509-7.281,1.582
		c-0.554-0.398-1.062-1.174-0.931-1.981C481.757,317.695,485.16,316.49,488.121,315.743z"/>
	<path style="fill:#753C3C;" d="M483.171,302.128c3.246,5.816,4.85,12.668,3.778,13.152c-0.604,0.273-2.407-1.333-7.978-10.782
		c-0.028-0.044-0.055-0.094-0.086-0.142c-0.525,0.373-3.954,2.737-8.282,1.675c-2.948-0.727-4.687-2.639-5.282-3.363
		c-0.153,1.137-0.532,2.916-1.659,4.697c-2.98,4.714-7.995,4.419-11.651,6.949c-0.183,0.128-0.367,0.262-0.541,0.404
		c-4.17,3.332-5.633,9.991-5.505,16.304c0.063,3.324,0.568,6.551,1.351,9.143c5.51,18.272,21.435,30.906,21.435,30.906l-5.05,5.651
		l-1.807,2.025l-1.781,1.993l-1.819,2.038l-2.54,2.843l-2.984,3.34l-2.461,2.756c0,0-19.043-16.652-29.708-43.773
		c-0.613-1.559-2.191-5.438-3.423-10.499c-1.343-5.493-2.268-12.381-1.093-19.198c0.654-3.819,1.972-7.623,4.251-11.146
		c0.243-0.374,0.509-0.752,0.806-1.124c4.2-5.387,13.269-10.4,22.768-12.326c5.375-1.094,10.891-1.193,15.738,0.191
		c0.105-0.088,0.209-0.176,0.325-0.271c1.942-1.598,5.45-3.872,9.694-3.556C476.707,290.547,480.781,297.845,483.171,302.128z"/>
	<path style="fill:#5A2B2B;" d="M441.802,371.214c4.804,6.208,9.75,10.934,13.951,14.409l-2.984,3.34
		c-2.206-2.048-4.451-4.374-6.661-7.011c-9.046-10.793-13.526-22.068-15.861-30.326
		C432.586,357.052,436.208,363.987,441.802,371.214z"/>
	<path style="fill:#5A2B2B;" d="M447.612,372.163c4.376,3.814,8.716,6.576,12.5,8.579l-1.819,2.038
		c-3.523-2.268-7.704-5.471-11.785-9.909c-2.807-3.055-4.976-6.056-6.646-8.718C441.913,366.664,444.467,369.423,447.612,372.163z"
		/>
	<path style="fill:#5A2B2B;" d="M463.7,376.723l-1.807,2.025c-1.695-0.85-3.565-1.961-5.476-3.405
		c-4.347-3.283-7.087-6.93-8.697-9.481c1.492,2.086,4.514,5.709,9.565,8.405C459.595,375.498,461.798,376.256,463.7,376.723z"/>
	<path style="fill:#8E4B4B;" d="M451.469,314.719c-3.536,3.767-3.668,4.371-5.118,11.011c-3.753,5.266-17.13,14.657-20.515,14.188
		c-3.996-0.554-4.814-4.478-9.933-8.169c-0.391-5.46-0.995-6.682,0.18-13.499c0.654-3.819,1.972-7.623,4.251-11.146
		c0.243-0.374,0.509-0.752,0.806-1.124c4.2-5.387-3.547,12.225,1.708,17.163C428,327.353,451.804,306.353,451.469,314.719z"/>
	<path style="fill:#5A2B2B;" d="M483.171,302.128c3.246,5.816,4.85,12.668,3.778,13.152c-0.604,0.273-2.407-1.333-7.978-10.782
		c-0.062-0.76-4.086,6.575-14.019-1.594c-0.491-0.404-3.255-8.296-8.328-9.717c1.942-1.598,8.798-3.485,13.042-3.168
		C476.707,290.547,480.781,297.845,483.171,302.128z"/>
	<path style="fill:#B63232;" d="M448.177,424.184c0.87-1.598,1.222-3.482,0.892-5.392c-0.984-5.716-2.292-13.23-2.033-16.35
		c0.892,3.395,2.952,10.439,7.056,16.895c2.93,4.604,6.958,9.349,12.5,13.322c3.855,2.764,7.682,4.604,11.051,5.862
		c27.438-5.857,41.008-12.739,48.663-23.199c0.243,2.035-6.19,17.861-6.363,19.103l-0.065,2.175
		c-4.087-0.432-10.034-0.475-16.619,1.635c-2.281,0.734-23.107,7.784-26.437,27.351c-2.146,12.604,4.277,22.752,7.774,27.199
		l-6.363,1.614c-1.552,0.394-3.195,0.027-4.428-0.988l-1.119-0.923c-1.643-1.36-2.244-3.606-1.503-5.603
		c0.297-0.799,0.384-1.652,0.259-2.483c-0.054-0.367-0.151-0.734-0.292-1.085c-4.823-12.269-13.721-35.22-20.744-53.384
		L448.177,424.184z"/>
	<polygon style="fill:#3791F4;" points="536.983,410.894 400.201,404.957 482.919,519.929 536.983,517.77 	"/>
	<path style="fill:#2E79CC;" d="M398.579,404.417c6.927,5.003,17.627,11.464,31.898,15.654c20.392,5.986,37.907,4.348,47.577,2.699
		c4.577,0.838,10.958,2.729,16.76,7.557c3.86,3.212,5.975,6.487,7.028,5.938c1.4-0.73,0.251-7.864-3.244-12.955
		c-4.434-6.46-11.93-8.589-23.788-10.796c-19.088-3.552-34.26-4.472-46.495-5.398C421.667,406.613,411.362,405.766,398.579,404.417z
		"/>
	<path style="fill:#FFA471;" d="M478.241,410.831l20.95,4.485l11.045,8.643l4.581,12.178l-1.443-0.335
		c-2.284-1.815-4.007-4.241-4.967-6.993c-0.43-1.233-0.778-2.25-0.778-2.25l-3.959-3.54l2.396,4.06l1.87,12.906l0,0
		c-2.406-1.536-4.117-3.948-4.769-6.724l-1.063-4.519l1.871,10.304v0c-2.602-1.8-4.381-4.559-4.946-7.669l-0.366-2.012
		c0,0-6.565-3.541-9.692-5.104c-3.126-1.563-11.878-10.621-11.878-10.621L478.241,410.831z"/>
	<path style="fill:#A07676;" d="M385.396,399.077c0,0,24.009,24.896,93.052,16.716c0,0,0.613-1.639,0.678-5.279
		C436.947,406.506,400.939,372.9,385.396,399.077z"/>
</g>
<g>
	<path style="fill:#855656;" d="M1056.755,688.475l5.317,7.722c0,0-21.699,10.21-22.449,8.101
		c-0.75-2.108,14.344-13.157,14.344-13.157l-1.05-2.952L1056.755,688.475z"/>
	<path style="fill:#855656;" d="M976.515,693.301l1.934,9.169c0,0-24.21,2.32-24.21,0.083c0-2.237,17.927-7.607,17.927-7.607v-3.132
		L976.515,693.301z"/>
	<path style="fill:#663F38;" d="M1091.494,448.956c-8.497,9.329-26.186,11.347-38.542,5.817c-6.427-2.877-10.227-7.267-11.652-8.949
		c-3.151-3.718-6.068-8.882-8.712-15.057c-17.546-40.923-23.184-126.265-5.629-129.916c6.682-1.392,15.538,9.311,23.753,19.24
		c7.278,8.797,11.262,17.424,13.445,23.267c-4.782,0.595-9.559,1.195-14.341,1.79c9.169,7.647,23.287,21.41,33.612,42.508
		c4.397,8.985,12.585,25.715,13.75,40.606C1097.796,436.155,1096.438,443.529,1091.494,448.956z"/>
	<path style="fill:#4D2D2B;" d="M1091.494,448.956c-8.497,9.329-26.186,11.347-38.542,5.817c-6.427-2.877-10.227-7.267-11.652-8.949
		c-3.151-3.718-6.068-8.882-8.712-15.057c1.649-6.859,4.943-13.531,10.057-19.397c0.887,3.32,4.585,15.625,16.582,22.82
		c7.646,4.586,24.08,10.345,33.612,0.895c1.914-1.897,3.361-4.224,4.338-6.824C1097.796,436.155,1096.438,443.529,1091.494,448.956z
		"/>
	<path style="fill:#526473;" d="M956.857,317.228c-0.408,5.821-1.277,9.405-1.277,9.405s-2.044,0.237-5.445,0.617
		c-16.08,1.799-62.452,6.819-65.75,5.262c-0.009-0.004-0.018-0.009-0.027-0.013c-2.519-1.306-3.594-4.184-3.648-7.584
		c-0.121-7.334,4.535-17.097,9.828-18.744c1.008-0.313,2.514-0.371,4.424-0.237C907.751,306.856,938.527,316.574,956.857,317.228z"
		/>
	<path style="fill:#526473;" d="M894.046,327.461c-1.631,2.618-3.939,4.533-7,5.016c-0.762,0.121-1.654,0.13-2.662,0.036
		c-9.169-0.823-27.75-9.915-41.724-17.397c-10.097-5.405-17.792-9.969-17.792-9.969c-3.088-4.689,11.737-40.727,19.074-42.096
		c11.043-2.045,35.472,42.284,47.895,41.232c1.241-0.107,2.29,0.519,3.124,1.651C897.99,310.068,898.102,320.946,894.046,327.461z"
		/>
	<path style="opacity:0.31;fill:#455464;" d="M950.134,327.25c-16.08,1.799-62.452,6.819-65.75,5.262
		c-9.169-0.823-27.75-9.915-41.724-17.397c-6.082-22.44,3.339-45.183,4.137-45.138c0.793,0.045-4.567,22.78,8.515,39.375
		c5.49,6.967,12.127,10.188,16.134,12.081c3.012,1.423,6.113,2.573,9.264,3.481c4.388,1.275,8.869,2.09,13.337,2.546
		c23.578,2.407,46.842-5.146,54.483-7.817C949.162,321.912,949.762,324.512,950.134,327.25z"/>
	<path style="fill:#FFA471;" d="M951.498,318.217c0.705,0.258,2.878,0.612,4.239,0.708c0.704,0.048,1.427,0.041,2.158-0.013
		c0.151-0.063,0.328-0.125,0.547-0.191c8.053-2.454,13.873-6.512,18.773-7.576c2.793-0.607,7.857-2.194,11.683-0.59
		c0.764,0.321,2.311,0.97,2.232,1.604c-0.084,0.681-0.96,1.087-1.9,1.319c-0.216,0.051-0.438,0.096-0.651,0.132
		c-1.484-0.075-1.724,0.086-1.724,0.125c0.004,0.04,0.811,0.029,1.724-0.125c0.228,0.011,0.482,0.027,0.771,0.053
		c0.995,0.083,2.375,0.249,4.289,0.547c2.333,0.364,4.137,0.871,4.327,1.995c0.133,0.772-2.004,1.604-3.679,2.083
		c0.334,0.161,4.355,0.021,4.361,2.001c0.004,1.101-3.69,2.457-6.441,2.755c2.752,0.118,3.375,1.025,3.16,2.172
		c-0.316,1.686-7.701,0.66-15.645,1.01l-0.005,0.027c0,0-6.413,0.386-6.758,2.988c-0.209,1.583,1.557,2.035,3.439,4.939
		c0.819,1.257,2.963,4.454,1.974,7.661c-0.16,0.516-0.904,2.922-2.21,3.018c-1.966,0.151-2.043-5.177-6.567-8.89
		c-2.92-2.397-4.216-1.273-7.413-4.074c-2.23-1.955-1.863-4.467-5.218-6.169c-2.91-1.477-4.175-1.428-6.466-2.105
		C950.995,321.498,951.002,320.34,951.498,318.217z"/>
	<path style="fill:#D6B07B;" d="M1057.765,689.347c-1.689,0.443-2.913,0.783-4.603,1.226c-9.057-25.487-14.153-43.626-20.15-59.439
		c-1.152-3.038-2.433-6.752-3.782-10.918v-0.005c-6.772-20.923-15.247-53.242-17.407-68.406
		c-2.935-20.605-8.609-48.266-12.652-47.814c-2.053,0.228-4.029,11.222-4.688,16.13c-1.976,14.717-4.262,31.975-6.987,63.13
		c0.932,5.741,2.797,14.153,4.262,20.466c1.344,5.799,1.425,11.813,0.224,17.643c-3.518,17.115-11.123,54.459-14.453,73.337
		l-5.75-0.112c-0.466-8.108-0.901-16.251-1.313-24.287c-1.766-34.194-3.164-66.558-5.244-86.751
		c-2.053-19.88-3.648-22.847-4.849-39.599c-1.784-24.918-2.532-47.725-2.174-66.768c0.045-2.564,0.117-5.061,0.202-7.486
		c0.005-0.072,0.005-0.143,0.009-0.215c0.237-6.398,0.618-12.296,1.143-17.607c0.081-0.828,0.166-1.647,0.255-2.448
		c0.013-0.112,0.022-0.228,0.036-0.34c0.143-1.275,0.296-2.506,0.457-3.705c0.834-0.005,1.676-0.009,2.519-0.005h0.161
		c4.656,0.005,9.416,0.072,14.238,0.179c14.001,0.295,28.517,0.89,42.482,1.168c5.248,0.103,10.42,0.161,15.453,0.139
		c0.838,3.799,1.976,9.32,3.057,16.014c0.018,0.103,0.036,0.206,0.049,0.309c0.022,0.139,0.045,0.277,0.067,0.421
		c0.027,0.161,0.049,0.322,0.076,0.479c1.008,6.47,1.717,12.475,2.21,17.943c1.116,12.412,1.138,22.073,1.174,28.212
		c0.211,39.237-4.406,59.435-2.752,68.325c1.64,8.851,7.153,19.871,11.231,27.169c3.092,5.539,4.89,11.705,5.221,18.046
		C1056.466,642.54,1058.366,681.45,1057.765,689.347z"/>
	<path style="fill:#C2996C;" d="M1040.614,482.027c-0.843,1.181-1.927,2.309-3.348,3.172c-12.49,7.584-31.555-17.111-56.469-16.108
		c-5.925,0.237-13.629,1.987-22.596,8.09c0.045-2.564,0.117-5.061,0.202-7.486c0.005-0.072,0.005-0.143,0.009-0.215
		c0.237-6.398,0.618-12.296,1.143-17.607c5.243-2.564,11.285-4.747,17.667-6.318c14.153-3.49,29.978-3.96,42.482,1.168
		c4.204,1.718,8.027,4.072,11.289,7.155c3.231,3.052,5.633,6.564,7.413,10.206C1039.413,470.555,1040.121,476.559,1040.614,482.027z
		"/>
	<path style="fill:#B53424;" d="M954.356,284.295c29.131,1.79-7.043,124.342-13.608,123.638
		c-6.561-0.701-17.049-7.234-15.408-17.624C926.976,379.922,936.643,283.207,954.356,284.295z"/>
	<path style="fill:#E05337;" d="M1044.011,473.575c-1.295,3.897-29.391-12.323-56.89-11.392
		c-15.914,0.55-27.257,10.792-31.887,6.985c-4.298-3.544,0.367-24.422,2.707-45.716c2.331-21.298-23.721-120.247-6.678-138.23
		c3.101-3.271,7.166-5.674,11.805-7.343c11.957-4.291,27.719-3.714,40.563-0.532c3.787,0.935,7.319,2.103,10.424,3.436
		c1.564,0.667,3.016,1.378,4.343,2.13c2.711,1.526,4.88,3.204,6.319,4.962c5.719,6.994,14.279,55.815,18.868,102.358
		c0.3,3.061,0.587,6.108,0.852,9.137C1047.283,431.832,1047.937,461.713,1044.011,473.575z"/>
	<path style="fill:#B53424;" d="M1019.813,296.32c22.087,36.537,29.107,143.636,9.387,161.138c-4.033,3.58-16.082-1.01-43.578-0.076
		c-15.252,0.52-26.288,9.916-31.253,7.35c-0.202,2.166,0.008,3.726,0.868,4.435c4.627,3.81,15.971-6.435,31.886-6.982
		c27.496-0.933,55.595,15.288,56.889,11.39C1052.634,447.509,1040.403,330.383,1019.813,296.32z"/>
	<path style="fill:#E05337;" d="M1017.093,287.084c16.845-13.515,60.646,101.884,54.944,105.316
		c-5.69,3.427-21.51,3.224-26.255-6.086C1041.032,377.003,1003.133,298.284,1017.093,287.084z"/>
	<path style="fill:#B53424;" d="M1027.586,290.012c18.955,24.655,44.022,101.164,39.498,103.891
		c-1.723,1.035-4.581,2.336-7.846,3.397c5.772-0.878,11.637-3.298,14.464-5.001C1078.444,389.443,1047.724,309.049,1027.586,290.012
		z"/>
	<path style="fill:#E05337;" d="M1057.685,402.122c-6.167-4.014-42.88-34.382-38.78-46.87c0.179-0.541,0.439-0.989,0.775-1.333
		c5.898-6.184,34.872,16.242,45.802,25.581c2.16,1.848,3.617,3.181,4.051,3.682C1083.647,399.486,1066.397,407.791,1057.685,402.122
		z"/>
	<path style="fill:#E05337;" d="M878.806,411.868c-7.487-10.18,47.647-24.694,51.759-23.818c7.946,1.691,15.179,15.609,8.988,19.588
		C933.361,411.616,886.597,422.463,878.806,411.868z"/>
	<path style="fill:#B53424;" d="M931.469,387.431c-0.325-0.068-4.424-2.637-4.007,0.813c5.44,5.022,10.095,14.275,5.37,17.312
		c-5.009,3.216-36.956,10.301-53.12,7.289c9.969,8.972,54.489-0.413,60.482-4.259C946.38,404.608,939.415,389.125,931.469,387.431z"
		/>
	<path style="fill:#C2996C;" d="M1000.678,504.968c-0.52-0.685-1.026-1.029-1.506-0.976c-2.053,0.228-4.029,11.222-4.688,16.13
		c-1.976,14.717-4.262,31.975-6.987,63.13c0.932,5.741,2.797,14.153,4.262,20.466c1.344,5.799,1.425,11.813,0.224,17.643
		c-3.518,17.115-11.123,54.459-14.453,73.337l-5.75-0.112c-0.466-8.108-0.901-16.251-1.313-24.287
		c6.534-11.571,10.931-21.84,13.915-29.836c6.808-18.242,7.148-27.066,6.723-33.111c-0.654-9.302-3.025-10.725-5.826-21.925
		c-3.666-14.667-1.846-29.912,1.793-60.405c1.197-10.023,2.523-21.272,9.86-23.715C997.922,500.977,999.199,502.31,1000.678,504.968
		z"/>
	<path style="fill:#C2996C;" d="M1002.955,509.724c-0.798-1.87-1.56-3.468-2.277-4.756
		C1001.413,505.934,1002.175,507.572,1002.955,509.724z"/>
	<path style="fill:#C2996C;" d="M1019.986,479.284c-1.433-0.389,1.659,3.873,5.845,8.079c4.462,4.483,11.346,10.086,12.841,10.465
		c1.613,0.409-2.951-5.239-8.879-10.728C1026.813,484.34,1021.373,479.66,1019.986,479.284z"/>
	<path style="fill:#C2996C;" d="M987.968,466.854c-0.547,0.038-0.442,9.396,0.314,28.075c0.079,1.945,1.456,3.6,3.356,4.035
		c4.194,0.959,6.406,1.144,6.638,0.554c0.26-0.663-1.981-2.303-6.723-4.922C989.709,476.064,988.514,466.816,987.968,466.854z"/>
	<path style="fill:#FCE28B;" d="M1003.632,277.347l-30.453,24.847l-10.111-24.314C975.025,273.588,990.787,274.165,1003.632,277.347
		z"/>
	<polygon style="fill:#E07F4F;" points="971.386,252.974 967.934,276.443 974.971,292.797 998.674,276.277 989.761,242.683 	"/>
	<path style="fill:#FFA471;" d="M973.063,270.798c0.037-0.009,0.074-0.019,0.11-0.031c10.931-4.335,15.09-19.697,18.203-30.877
		c0.005-0.008,0.007-0.016,0.005-0.022c1.243-5.707,2.257-10.354,3.949-11.902c4.645-4.247,19.566-17.898,15.174-28.643
		c0,0,0.003-0.004-0.002-0.007c-0.542-1.33-1.384-2.616-2.576-3.835c-10.718-10.946-36.302-25.345-42.817-21.051
		c-6.421,4.229-16.556,15.853-20.009,32.771c-1.166,5.702,1.637,11.811-1.956,17.288c-4.666,7.113-1.53,32.274-0.413,39.556
		c0.04,0.258,0.074,0.493,0.109,0.704C944.72,276.459,963.892,273.122,973.063,270.798z"/>
	<path style="fill:#E07F4F;" d="M973.063,270.798c0.037-0.009,0.074-0.019,0.11-0.031c10.931-4.335,15.09-19.697,18.203-30.877
		c0.005-0.008,0.007-0.016,0.005-0.022c1.243-5.707,2.257-10.354,3.949-11.902c4.645-4.247,19.566-17.898,15.174-28.643
		c1.104,10.18-11.67,21.863-15.907,25.736c-5.156,4.715-4.023,38.22-22.267,42.832c-8.54,2.165-25.758,5.208-29.599-3.845
		c0.04,0.258,0.074,0.493,0.109,0.704C944.72,276.459,963.892,273.122,973.063,270.798z"/>
	<path style="fill:#E07F4F;" d="M976.138,214.482c1.532,0.192,2.574,2.098,3.177,3.201c0.191,0.349,0.75,1.426,1.203,3.899
		c0.278,1.519,0.55,3.747,0.407,6.531c-4.433-0.483-8.866-0.965-13.299-1.448c0.387-1.424,1.126-3.687,2.548-6.174
		C971.536,218.112,973.781,214.187,976.138,214.482z"/>
	<path style="fill:#E07F4F;" d="M952.264,212.602c0.834,0.325,1.247,1.251,1.916,2.754c0.93,2.087,1.142,3.961,1.321,5.664
		c0.119,1.133-0.008,2.147-0.093,4.053c-3.737-0.681-7.244-0.796-10.98-1.477c0.926-2.547,1.853-5.094,2.779-7.641
		C948.84,213.446,950.858,212.055,952.264,212.602z"/>
	<path style="fill:#643C3A;" d="M944.714,209.22c0,0,2.137-1.255,5.298-2.307c1.661-0.553,4.769-1.269,9.197-0.435
		c-0.538-2.507-1.605-3.77-2.181-4.329c-3.252-3.158-8.679-1.686-11.824,1.424c-2.626,2.596-4.025,6.682-3.478,7.259
		C942.023,211.145,942.811,210.337,944.714,209.22z"/>
	<path style="fill:#643C3A;" d="M985.068,215.257c0,0-1.877-1.669-4.822-3.353c-1.547-0.884-4.51-2.227-9.117-2.326
		c1.062-2.341,2.394-3.357,3.087-3.785c3.915-2.418,9.041,0.145,11.54,3.836c2.087,3.083,2.635,7.37,1.967,7.822
		C987.361,217.697,986.74,216.743,985.068,215.257z"/>
	<path style="fill:#84381E;" d="M970.416,250.274c-0.074,0.379-0.165,0.756-0.268,1.123c-0.203,0.717-0.457,1.405-0.767,2.06
		c-1.434,3.064-3.96,5.369-6.975,6.141c-5.509,1.403-12.151-2.465-13.996-9.422c0.712,0,1.423,0.005,2.135,0.005
		C957.167,250.214,963.794,250.242,970.416,250.274z"/>
	<path style="fill:#FFFFFF;" d="M970.416,250.274c-0.074,0.379-0.165,0.756-0.268,1.123c-5.743,1.323-12.932,2.197-18.945,2.258
		c-0.22-1.161-0.445-2.318-0.657-3.474C957.167,250.214,963.794,250.242,970.416,250.274z"/>
	<path style="fill:#FFFFFF;" d="M954.874,223.326c-0.21,1.508-2.641,2.417-5.429,2.03c-2.789-0.387-4.879-1.923-4.669-3.431
		c0.21-1.508,2.641-2.417,5.429-2.03C952.994,220.281,955.084,221.817,954.874,223.326z"/>
	<path style="fill:#41552D;" d="M950.349,222.822c-0.21,1.508-1.451,2.582-2.773,2.399c-1.322-0.183-2.223-1.554-2.013-3.063
		c0.21-1.508,1.451-2.582,2.773-2.399C949.657,219.943,950.559,221.314,950.349,222.822z"/>
	<path style="fill:#FFFFFF;" d="M949.513,221.513c-0.055,0.398-0.383,0.681-0.731,0.633c-0.349-0.048-0.586-0.41-0.531-0.808
		c0.055-0.398,0.383-0.681,0.731-0.633C949.33,220.754,949.568,221.115,949.513,221.513z"/>
	<path style="fill:#FFFFFF;" d="M980.856,226.287c-0.258,1.856-3.25,2.975-6.682,2.499c-3.432-0.476-6.005-2.367-5.747-4.223
		c0.258-1.856,3.25-2.975,6.682-2.499C978.541,222.54,981.114,224.431,980.856,226.287z"/>
	<path style="fill:#41552D;" d="M975.493,225.667c-0.258,1.856-1.786,3.178-3.413,2.952s-2.736-1.913-2.478-3.769
		c0.258-1.856,1.786-3.178,3.413-2.952S975.751,223.811,975.493,225.667z"/>
	<path style="fill:#FFFFFF;" d="M974.463,224.057c-0.068,0.49-0.471,0.838-0.9,0.779c-0.429-0.059-0.722-0.505-0.654-0.994
		c0.068-0.49,0.471-0.838,0.9-0.779C974.239,223.122,974.531,223.567,974.463,224.057z"/>
	<path style="fill:#E07F4F;" d="M952.473,215.927c0.548,1.348,2.172,5.827,0.584,11.214c-1.344,4.559-4.243,7.245-5.435,8.238
		c-3.858-0.545-4.609,0.222-4.804,0.618c-0.751,1.522,2.162,5.039,5.493,6.757c2.377,1.226,4.857,1.48,4.991,1.12
		c0.216-0.581-5.727-2.675-5.423-4.178c0.15-0.741,1.317-1.128,2.817-1.75c4.687-1.944,7.27-10.331,4.921-16.874
		C955.177,219.847,954.343,217.899,952.473,215.927z"/>
	<path style="fill:#643C3A;" d="M959.502,180.281c-0.171-0.108-3.136,3.376-1.69,9.692c0.789,3.447,3.949,6.78,7.738,7.971
		c11.387,3.579,25.546-13.098,28.501-10.247c0.596,0.574,0.412,1.629,0.334,2.137c-0.727,4.721-9.106,36.294,2.722,35.776
		c4.08-2.375,11.45-7.46,16.447-16.704c2.256-4.175,4.744-8.778,4.011-14.263c-1.22-9.136-10.53-14.404-18.745-19.053
		c-7.007-3.965-29.716-14.383-40.103-6.803c-3.062,2.235-4.628,5.625-7.759,12.405c-3.194,6.916-3.198,16.195-2.774,15.164
		C954.355,181.335,959.773,180.452,959.502,180.281z"/>
	<path style="fill:#855656;" d="M962.047,172.67c-0.409-0.058-2.166,4.057-1.583,8.469c0.993,7.521,8.303,12.258,8.649,11.953
		c0.316-0.278-5.369-4.598-6.795-12.484C961.523,176.209,962.419,172.722,962.047,172.67z"/>
	<path style="fill:#855656;" d="M966.208,176.16c-0.536,0.137-1.213,4.779,1.163,8.606c4.051,6.524,15.01,7.519,15.333,7.074
		c0.294-0.406-8.466-1.769-13.197-8.432C966.868,179.692,966.696,176.035,966.208,176.16z"/>
	<path style="fill:#FFA471;" d="M994.18,227.029c3.161-2.861,8.526-5.11,10.513-3.327c2.482,2.228-0.329,10.73-5.722,15.517
		c-2.217,1.968-6.939,5.143-9.056,3.648C987.279,241.006,988.737,231.956,994.18,227.029z"/>
	<path style="fill:#E07F4F;" d="M1002.756,226.936c-0.516-0.503-1.466-0.288-2.751,0.004c-1.606,0.365-4.904,1.552-5.011,3.319
		c-0.113,1.849,3.362,2.793,3.08,4.034c-0.353,1.556-5.932,0.576-7.115,3.16c-0.358,0.783-0.31,1.885,0.246,2.342
		c1.367,1.124,5.95-1.526,8.731-4.94C1002.157,232.129,1003.918,228.068,1002.756,226.936z"/>
	<path style="fill:#B53424;" d="M1044.437,399.37c-7.305-6.331-12.544-12.421-16.103-17.052
		c-19.199-24.99-22.475-50.432-24.402-65.385c-1.367-10.636,0.619-16.712,2.411-24.583c1.501-6.577,2.653-9.115,4.338-12.479
		c1.125,0.304,2.25,0.608,3.375,0.913c1.609,0.434,3.222,0.872,4.831,1.307c-0.166,0.273-0.332,0.55-0.488,0.823
		c-7.735,13.191-8.179,26.22-7.731,34.082c1.694,29.482,15.583,51.474,21.857,60.15c3.603,4.985,7.359,9.325,11.061,13.088
		C1043.886,393.294,1044.173,396.341,1044.437,399.37z"/>
	<ellipse style="fill:#FCE28B;" cx="959.286" cy="323.671" rx="10.756" ry="6.264"/>
	<ellipse style="fill:#FDB455;" cx="963.767" cy="323.447" rx="10.756" ry="5.593"/>
	<path style="fill:#2F3C48;" d="M865.607,687.418l-0.896,9.396c0,0,25.097,2.237,25.097,0s-17.927-7.607-17.927-7.607l-0.896-2.685
		L865.607,687.418z"/>
	<path style="fill:#2F3C48;" d="M743.723,688.761l-1.816,9.392c0,0,25.091,2.3,25.097,0.063c0.006-2.237-17.907-7.652-17.907-7.652
		l0.008-3.132L743.723,688.761z"/>
	<path style="fill:#B53424;" d="M1057.685,402.122c-6.167-4.014-42.88-34.382-38.78-46.87c0.179-0.541,0.439-0.989,0.775-1.333
		c1.049,2.184,2.577,5.204,4.589,8.68c2.142,3.7,21.62,37.375,35.405,34.006c3.966-0.971,6.14-4.685,6.274-4.922
		c2.299-4.063,0.807-8.676-0.466-12.184c2.16,1.848,3.617,3.181,4.051,3.682C1083.647,399.486,1066.397,407.791,1057.685,402.122z"
		/>
	<path style="fill:#663F38;" d="M1011.273,278.926c-1.874,3.264-3.505,5.601-5.378,12.081c-2.242,7.756-2.999,15.702-2.241,26.399
		c1.067,15.04,2.881,40.626,20.616,66.67c4.574,6.717,12.229,16.434,24.201,25.952c0-2.535,0-5.071,0-7.607
		c-6.255-5.661-13.341-13.292-19.719-23.267c-5.769-9.022-18.375-31.769-18.375-61.3c0-8.04,0-23.267,8.963-36.243
		C1016.651,280.716,1013.962,279.821,1011.273,278.926z"/>
	<path style="fill:#B53424;" d="M1026.062,350.518c-0.089,0.205,5.117,2.387,10.756,5.369c7.956,4.208,13.972,8.528,17.927,11.634
		c-5.795-13.41-7.415-16.638-7.619-16.555c-0.279,0.112,2.649,6.181,0.896,7.606c-1.161,0.945-3.595-0.788-8.515-3.132
		C1032.331,352.021,1026.156,350.3,1026.062,350.518z"/>
	<path style="fill:#B53424;" d="M885.234,409.673c0.824,3.105,0.135,5.982-1.539,6.425s-3.701-1.715-4.525-4.82
		c-0.825-3.105-0.135-5.982,1.539-6.425C882.383,404.41,884.409,406.568,885.234,409.673z"/>
	<path style="fill:#B53424;" d="M1020.032,351.234c2.482-2.045,5.387-2.621,6.49-1.287c1.103,1.334-0.015,4.073-2.496,6.118
		s-5.387,2.621-6.49,1.287S1017.55,353.279,1020.032,351.234z"/>
	<path style="fill:#FFA471;" d="M1023.821,350.518c0,0-5.149-5.056-5.147-6.977c0.004-3.646,0.73-4.783,0.881-8.173
		c0.167-3.744,0.189-7.379-1.34-9.131c-1.731-1.983-4.958-2.715-7.631-1.783c-0.614,0.214-1.147,0.498-1.603,0.807
		c-0.97,0.658-0.719,2.159,0.405,2.519c0.839,0.269,1.681,0.594,2.519,0.839c1.177,0.344,1.802,1.652,1.285,2.756
		c-0.437,0.934-1.137,1.878-2.247,2.311c-0.622,0.242-1.189,0.253-1.523,0.256c-2.142,0.02-4.305-1.031-5.349-1.537
		c-7.074-3.43-12.971-8.574-14.153-7.082c-0.846,1.068-0.744,2.343-0.703,2.822c0.197,2.33,3.438,2.889,5.505,3.949
		c1.026,0.526,1.671,0.74,2.171,1.089c-1.958-1.211-3.694-1.587-4.216-0.979c-0.648,0.754,0.632,2.954,0.751,3.154
		c0.488,0.823,1.07,1.394,1.512,1.758c-2.209-2.068-2.815-1.92-3.001-1.796c-0.729,0.487,0.573,3.597,1.085,4.764
		c0.552,0.816,1.103,1.632,1.655,2.448c-0.83-1.287-1.867-2.74-2.276-2.563c-0.326,0.141-0.125,1.263-0.003,1.94
		c0.246,1.366,0.619,3.443,2.074,4.926c1.115,1.136,2.455,1.504,4.407,1.899c7.573,1.533,9.741,1.007,14.966,2.943
		c1.18,0.437,5.047,3.318,5.047,3.318L1023.821,350.518z"/>
	<polygon style="fill:#663F38;" points="1010.377,321.881 1010.825,329.488 1006.343,329.04 	"/>
	<path style="fill:#643C3A;" d="M953.46,219.863c0,0.494-2.107,0.895-4.706,0.895c-2.599,0-4.706-0.401-4.706-0.895
		c0-0.494,2.107-0.895,4.706-0.895C951.353,218.968,953.46,219.369,953.46,219.863z"/>
	<path style="fill:#643C3A;" d="M980.896,223.778c-0.085,0.487-2.769,0.425-5.994-0.139c-3.225-0.564-5.771-1.415-5.685-1.902
		c0.085-0.487,2.769-0.425,5.994,0.139C978.435,222.44,980.981,223.292,980.896,223.778z"/>
	<path style="fill:#54788F;" d="M742.969,688.312l5.824,0.282l2.246,0.11c0,0,13.832-85.475,20.755-106.997
		c9.599-29.845,23.693-96.967,30.711-96.954c7.014,0.014,31.731,72.868,32.843,82.552c1.007,8.777-6.199,10.782-3.358,32.688
		c2.929,18.334,32.863,89.246,32.863,89.246l6.723-2.499c0,0-15.952-103.915-10.711-123.639
		c-2.656-17.862-5.964-54.625-10.225-88.589c-0.138-1.095-0.28-2.186-0.417-3.277c-0.047-0.389-0.099-0.773-0.147-1.158
		c-1.199-9.299-2.476-18.311-3.828-26.579c-0.871-5.319-1.771-10.328-2.708-14.904c-0.018-0.08-0.033-0.161-0.051-0.241
		c-1.739-8.445-3.599-15.417-5.586-20.146c0,0-74.465-7.86-79.391,14.578c-0.45,1.726-0.877,3.469-1.281,5.226
		c-0.043,0.197-0.091,0.394-0.135,0.592c-1.052,4.638-1.951,9.392-2.72,14.217c-1.881,11.844-2.956,24.125-3.53,36.273
		c-0.043,0.864-0.082,1.723-0.116,2.583c-0.135,3.205-0.233,6.396-0.301,9.564c-0.052,2.121-0.087,4.238-0.113,6.337
		c-0.39,33.477,2.002,63.57,0.413,77.452c-0.625,5.477-10.812,15.857-12.368,30.535
		C735.996,627.855,742.969,688.312,742.969,688.312z"/>
	<path style="fill:#47687C;" d="M750.427,491.24c13.894-7.685,34.948-16.919,61.841-20.426c14.346-1.871,27.174-1.696,37.807-0.736
		c-1.199-9.299-2.476-18.311-3.828-26.579c-0.871-5.319-1.771-10.328-2.708-14.904c-24.606-7.266-67.011-2.524-89.164,14.225
		c-2.014,12.681-3.105,25.867-3.647,38.856C750.593,484.88,750.495,488.072,750.427,491.24z"/>
	<path style="fill:#E07F4F;" d="M780.032,265.38l2.193-44.897l28.61,1.473l1.185,44.904
		C812.021,266.859,786.77,273.825,780.032,265.38z"/>
	<path style="fill:#F2E2BB;" d="M763.13,428.651c20.518,0.843,78.74-16.683,74.321-26.113
		c-21.093-45.041,24.778-130.604,3.045-138.33c-34.479-12.256-80.005-1.83-101.199,22.364
		C722.375,304.983,770.462,344.803,763.13,428.651z"/>
	<polygon style="fill:#DBC28A;" points="777.679,266.118 792.101,277.652 799.601,260.597 782.994,259.6 	"/>
	<polygon style="fill:#DBC28A;" points="820.696,260.771 809.563,275.294 797.802,259.714 816.191,256.772 	"/>
	<path style="fill:#455464;" d="M851.309,441.381c1.443,8.542,1.318,13.616-3.289,14.869c-30.856,8.376-79.003,3.544-96.696,15.437
		c-6.288,4.219,3.249-37.21,1.519-89.046c-0.157-4.739-0.408-9.567-0.775-14.453c-2.761-36.74-23.896-67.721-16.815-80.299
		c5.584-9.915,42.97-28.391,42.97-28.391c14.866,35.38,36.754,74.464,36.754,74.464s-1.869-48.557,0.094-76.648
		c0,0,24.636,0.716,29.655,5.298c11.491,10.497,13.073,30.386,7.184,65.01c-0.26,1.566-0.542,3.159-0.843,4.783
		c-0.878,4.837-1.891,9.942-3.034,15.33C838.747,391.526,848.347,423.796,851.309,441.381z"/>
	<path style="fill:#FFA471;" d="M774.096,189.579c0,0,8.126,47.351,18.601,53.653c8.611,5.186,19.185,8.809,28.237,9.737
		c3.039,0.312,5.839-1.686,6.552-4.652c5.063-21.048,16.383-29.254,3.452-50.789c-0.374-3.888,3.27-4.111,2.17-7.162
		c-7.207-19.917-20.289-33.666-32.039-32.322C784.134,159.98,772.632,173.321,774.096,189.579z"/>
	<polygon style="fill:#293440;" points="822.919,257.765 818.562,346.043 770.693,263.496 778.974,258.95 814.08,327.25 
		814.814,256.911 	"/>
	<polygon style="fill:#F2E2BB;" points="776.064,261.974 779.473,256.431 799.592,259.254 791.406,273.315 	"/>
	<polygon style="fill:#F2E2BB;" points="817.46,257.153 812.995,255.64 799.592,259.254 809.545,272.609 	"/>
	<polygon style="fill:#293644;" points="776.456,348.012 776.503,354.723 773.331,349.823 	"/>
	<polygon style="fill:#293644;" points="786.119,319.755 786.166,326.466 782.995,321.566 	"/>
	<polygon style="fill:#293644;" points="757.808,308.764 757.854,315.476 754.683,310.576 	"/>
	<polygon style="fill:#293644;" points="782.736,413.297 782.783,420.009 779.612,415.108 	"/>
	<polygon style="fill:#293644;" points="792.4,385.04 792.446,391.752 789.275,386.852 	"/>
	<polygon style="fill:#293644;" points="764.088,374.05 764.135,380.761 760.963,375.861 	"/>
	<polygon style="fill:#293644;" points="825.591,388.837 825.638,395.549 822.466,390.649 	"/>
	<polygon style="fill:#293644;" points="835.254,360.58 835.301,367.292 832.13,362.392 	"/>
	<path style="fill:#293644;" d="M851.91,327.622c-0.26,1.566-0.542,3.159-0.843,4.783l-2.017-3.123L851.91,327.622z"/>
	<polygon style="fill:#293644;" points="806.943,349.59 806.99,356.302 803.818,351.401 	"/>
	<polygon style="fill:#293644;" points="822.905,453.737 822.952,460.449 819.78,455.549 	"/>
	<polygon style="fill:#293644;" points="839.764,429.01 839.81,435.722 836.639,430.822 	"/>
	<polygon style="fill:#293644;" points="811.452,418.02 811.499,424.731 808.328,419.831 	"/>
	<polygon style="fill:#293644;" points="787.442,445.481 787.489,452.193 784.317,447.293 	"/>
	<polygon style="fill:#293644;" points="759.13,434.491 759.177,441.203 756.006,436.303 	"/>
	<polygon style="fill:#293644;" points="829.211,329.3 829.257,336.012 826.086,331.112 	"/>
	<polygon style="fill:#293644;" points="838.874,301.043 838.92,307.755 835.749,302.855 	"/>
	<polygon style="fill:#293644;" points="824.788,273.398 824.835,280.11 821.663,275.21 	"/>
	<polygon style="fill:#293644;" points="771.059,280.93 771.106,287.642 767.935,282.742 	"/>
	<path style="fill:#47687C;" d="M742.969,688.312l5.824,0.282c-3.608-23.22-5.784-43.515-7.137-60.232
		c-0.937-11.605-1.765-25.032,5.104-39.412c1.235-2.586,2.567-4.885,3.884-6.896c3.14-4.797,4.63-10.478,4.275-16.197
		c-0.1-1.611-0.198-3.333-0.288-5.151c-1.49-29.871-2.234-44.811,2.266-60.87c3.652-13.033,8.681-20.693,5.664-23.307
		c-2.281-1.975-7.595,0.29-11.715,2.565c-0.043,0.864-0.082,1.723-0.116,2.583c-0.135,3.205-0.233,6.396-0.301,9.564
		c-0.052,2.121-0.087,4.238-0.113,6.337c-0.39,33.477,2.002,63.57,0.413,77.452c-0.625,5.477-10.812,15.857-12.368,30.535
		C735.996,627.855,742.969,688.312,742.969,688.312z"/>
	<path style="fill:#5A3D31;" d="M768.561,189.855c2.733,12.002,5.861,22.607,8.902,31.637c2.961-1.79,5.923-3.576,8.884-5.366
		c-7.059-24.3-7.136-31.432-5.167-32.296c0.844-0.37,1.633,0.598,2.877,0.126c3.916-1.493,0.474-12.815,4.797-15.413
		c0.964-0.579,2.313-0.725,10.596,2.521c7.534,2.95,9.189,4.157,11.72,5.037c1.176,0.409,2.387,0.697,3.61,0.874
		c11.379,1.663,23.915-5.923,23.467-7.908c-0.158-0.706-2.087-1.239-9.024-0.807c6.605-3.172,9.73-5.502,9.367-6.989
		c-0.456-1.882-6.474-2.418-18.048-1.614c3.819-3.878,5.32-6.826,4.508-8.847c-2.123-5.273-18.657-4.433-30.414-1.335
		c-3.021,0.797-7,1.847-11.048,3.45c-6.924,2.747-14.051,7.121-16.927,14.646C765.417,170.825,765.052,174.436,768.561,189.855z"/>
	<path style="fill:#FFA471;" d="M779.632,208.231c-2.289-3.315-6.622-5.865-8.677-3.723c-2.567,2.675-1.556,12.65,2.366,18.193
		c1.612,2.279,5.22,5.934,7.34,4.13C783.3,224.586,783.573,213.939,779.632,208.231z"/>
	<path style="fill:#E07F4F;" d="M772.104,208.285c0.541-0.603,1.339-0.367,2.419-0.048c1.35,0.399,4.047,1.737,3.838,3.819
		c-0.219,2.179-3.438,3.359-3.403,4.817c0.043,1.829,5.12,0.566,5.716,3.592c0.181,0.917-0.052,2.217-0.619,2.767
		c-1.395,1.352-4.972-1.686-6.831-5.66C771.738,214.399,770.887,209.643,772.104,208.285z"/>
	<path style="fill:#5A3D31;" d="M805.935,194.368c-1.059,0.871-1.824,0.826-5.837,1.488c-6.308,1.04-7.287,1.623-8.241,0.77
		c-1.453-1.298-1.37-4.607,0.178-6.253c1.179-1.254,2.533-0.823,6.777-1.284c6.213-0.674,8.089-2.116,9.075-0.983
		C808.99,189.374,807.966,192.697,805.935,194.368z"/>
	<path style="fill:#E07F4F;" d="M801.946,195.82c-1.627,0.165-2.847,1.711-3.554,2.606c-0.224,0.283-0.882,1.157-1.519,3.156
		c-0.391,1.228-0.82,3.029-0.849,5.275c4.702-0.42,9.404-0.839,14.106-1.259c-0.316-1.147-0.949-2.969-2.288-4.967
		C806.562,198.718,804.449,195.565,801.946,195.82z"/>
	<path style="fill:#E07F4F;" d="M822.987,192.476c-0.957,0.371-1.388,1.231-2.087,2.625c-0.971,1.937-1.115,3.612-1.23,5.134
		c-0.076,1.012,0.128,1.894,0.333,3.568c4.329-0.98,8.421-1.438,12.75-2.418c-1.224-2.154-2.448-4.309-3.672-6.463
		C827.035,192.873,824.599,191.85,822.987,192.476z"/>
	<path style="fill:#FFFFFF;" d="M820.471,201.71c0.381,1.746,3.307,2.592,6.535,1.89c3.228-0.702,5.537-2.686,5.156-4.432
		c-0.381-1.746-3.307-2.592-6.535-1.89C822.399,197.98,820.091,199.964,820.471,201.71z"/>
	<path style="fill:#5A3D31;" d="M824.244,201.189c0.381,1.746,1.93,2.892,3.46,2.559c1.53-0.333,2.462-2.018,2.081-3.764
		c-0.381-1.746-1.93-2.892-3.46-2.559S823.863,199.443,824.244,201.189z"/>
	<path style="fill:#FFFFFF;" d="M825.105,199.583c0.1,0.461,0.509,0.763,0.912,0.675c0.404-0.088,0.649-0.532,0.549-0.993
		c-0.101-0.46-0.509-0.763-0.913-0.675C825.25,198.678,825.005,199.122,825.105,199.583z"/>
	<path style="fill:#FFFFFF;" d="M796.139,204.765c0.213,1.973,3.343,3.255,6.992,2.863c3.649-0.392,6.435-2.31,6.222-4.283
		c-0.213-1.973-3.343-3.255-6.992-2.863C798.712,200.874,795.926,202.791,796.139,204.765z"/>
	<path style="fill:#5A3D31;" d="M801.299,204.272c0.213,1.973,1.787,3.422,3.517,3.236c1.729-0.186,2.959-1.936,2.746-3.91
		c-0.213-1.973-1.787-3.422-3.517-3.237C802.315,200.549,801.086,202.299,801.299,204.272z"/>
	<path style="fill:#FFFFFF;" d="M802.441,202.6c0.056,0.521,0.471,0.903,0.927,0.854c0.456-0.049,0.78-0.511,0.724-1.031
		c-0.056-0.52-0.471-0.903-0.927-0.854S802.385,202.08,802.441,202.6z"/>
	<path style="fill:#5A3D31;" d="M833.27,198.289c-0.072,0.258-2.54-0.892-6.089-0.495c-4.86,0.544-7.756,3.542-7.98,3.238
		c-0.228-0.31,2.403-3.929,6.58-4.648C829.773,195.698,833.358,197.972,833.27,198.289z"/>
	<path style="fill:#5A3D31;" d="M808.768,201.415c-0.078,0.245-2.409-0.948-5.834-0.693c-4.69,0.349-7.58,3.128-7.784,2.828
		c-0.208-0.306,2.45-3.691,6.49-4.233C805.5,198.8,808.864,201.113,808.768,201.415z"/>
	<polygon style="fill:#FFA471;" points="821.151,192.575 818.918,204.376 827.095,221.276 819.865,225.303 814.789,204.152 
		818.491,194.939 	"/>
	<path style="fill:#84381E;" d="M810.036,229.912c0,0,6.964,10.173,11.933,9.569c4.968-0.604,7.922-11.575,7.922-11.575
		l-0.455,0.046L810.036,229.912z"/>
	<path style="fill:#5A3D31;" d="M822.813,192.236c1.161,0.609,1.869,0.417,5.754,0.253c6.107-0.259,7.138,0.096,7.863-0.888
		c1.105-1.499,0.379-4.579-1.391-5.817c-1.349-0.944-2.532-0.276-6.594,0.122c-5.947,0.582-7.985-0.401-8.685,0.852
		C818.977,188.159,820.585,191.069,822.813,192.236z"/>
	<path style="fill:#FFFFFF;" d="M810.036,229.912c1.572,1.714,17.552,0.812,17.552,0.812l1.847-2.772L810.036,229.912z"/>
	<path style="fill:#E07F4F;" d="M820.578,196.25l-0.325,7.386l8.831,14.703c1.51,2.37,0.296,5.524-2.416,6.273l-8.623,1.129
		l5.7-2.368c1.907-1.193,2.61-3.628,1.631-5.651l-7.196-13.765L820.578,196.25z"/>
	<path style="fill:#7C544A;" d="M822.457,153.574c0.708,3.374-5.351,6.968-5.668,7.152c11.807-1.315,17.972-1.045,18.495,0.812
		c0.413,1.469-2.714,3.939-9.385,7.4c4.527,0.433,6.829,1.085,6.915,1.948c0.138,1.437-5.872,3.467-18.033,6.091
		c11.379,1.663,23.915-5.923,23.467-7.908c-0.158-0.706-2.087-1.239-9.024-0.807c6.605-3.172,9.73-5.502,9.367-6.989
		c-0.456-1.882-6.474-2.418-18.048-1.614c3.819-3.878,5.32-6.826,4.508-8.847c-2.123-5.273-18.657-4.433-30.414-1.335
		c-3.021,0.797-7,1.847-11.048,3.45c9.189-2.656,23.175-5.964,32.867-3.314C818.233,150.095,821.95,151.159,822.457,153.574z"/>
	<g>
		<path style="fill:#FFA471;" d="M836.675,406.267c0.798,0.109,3.037,0.862,4.376,1.454c0.692,0.307,1.374,0.677,2.04,1.094
			c0.111,0.135,0.249,0.283,0.423,0.455c6.402,6.365,10.737,14.686,15.112,17.812c2.862,2.802,3.559-0.149,4.815-0.33
			c1.257-0.181,2.104,0.401,3.261,0.109c1.942-0.49,2.366-3.195,3.934-3.435c11.887-1.815,8.571-7.584-2.657-10.728l0,0
			c0,0-5.114-3.49-4.505-6.241c0.29-1.311,2.831,3.897,4.615,2.985c0.564-0.289,3.769-5.839-3.909-8.31
			c-3.861-1.243-6.109-1.496-8.774-0.517c-2.988,1.099-5.733,1.338-9.771,1.27c-3.502-0.058-4.678-0.739-7.191-1.246
			C837.848,402.903,837.272,404.005,836.675,406.267z"/>
		<path style="fill:#FFA471;" d="M846.816,413.145c3.862-3.379,6.892-4.474,7.566-3.012c0.015,0.033,0.344,0.789-0.072,1.983
			c-1.158,3.321-7.126,7.278-8.203,5.34C845.996,417.257,844.097,416.129,846.816,413.145z"/>
		<path style="fill:#FFA471;" d="M849.954,417.206c4.509-4.485,7.868-6.142,8.419-4.47c0.012,0.037,0.276,0.905-0.305,2.38
			c-1.617,4.106-8.44,9.523-9.366,7.328C848.606,422.22,846.709,421.088,849.954,417.206z"/>
		<path style="fill:#FFA471;" d="M852.288,421.048c3.862-3.379,6.892-4.474,7.566-3.012c0.015,0.033,0.344,0.789-0.072,1.983
			c-1.158,3.321-7.126,7.278-8.203,5.34C851.467,425.16,849.568,424.033,852.288,421.048z"/>
		<path style="fill:#FFA471;" d="M854.998,424.834c3.749-2.174,6.315-2.648,6.473-1.404c0.003,0.028,0.07,0.669-0.534,1.56
			c-1.682,2.478-7.171,4.837-7.52,3.164C853.381,427.981,852.211,426.843,854.998,424.834z"/>
		<path style="fill:#F88B63;" d="M851.747,415.522c-0.032,0.041-0.069,0.081-0.101,0.123c0,0,0,0-0.006,0.003
			c-0.234,0.287-0.495,0.57-0.771,0.842c-0.006,0.003-0.007,0.007-0.013,0.01c-0.342,0.346-0.711,0.669-1.092,0.974
			c-0.025,0.02-0.051,0.04-0.076,0.06c0.081-0.105,0.174-0.217,0.266-0.328c0.415-0.412,0.818-0.799,1.213-1.161
			C851.359,415.862,851.551,415.69,851.747,415.522z"/>
		<path style="fill:#F88B63;" d="M849.765,417.474c0.372-0.35,0.736-0.675,1.092-0.974
			C850.514,416.846,850.146,417.169,849.765,417.474z"/>
		<path style="fill:#F88B63;" d="M854.813,419.645c-0.174,0.174-0.351,0.343-0.526,0.508c0.125-0.139,0.244-0.274,0.36-0.415
			C854.705,419.704,854.761,419.675,854.813,419.645z"/>
		<path style="fill:#F88B63;" d="M857.119,423.542c-0.085,0.104-0.175,0.207-0.265,0.31c-0.078,0.036-0.159,0.071-0.244,0.114
			C856.782,423.828,856.954,423.69,857.119,423.542z"/>
		<path style="fill:#E07F4F;" d="M854.311,412.116c-0.34,0.981-1.104,2.019-2.039,2.945c-0.006,0.003-0.007,0.007-0.013,0.01
			c-0.195,0.196-0.403,0.387-0.614,0.574c0,0,0,0-0.006,0.003c-0.152,0.135-0.313,0.271-0.472,0.398
			c0.191-0.183,0.383-0.356,0.579-0.523c0.521-0.65,0.932-1.327,1.161-1.977c0.413-1.193,0.088-1.951,0.071-1.985
			c-0.629-1.363-3.309-0.501-6.799,2.362c0.177-0.244,0.389-0.505,0.637-0.777c3.86-3.379,6.893-4.476,7.565-3.014
			C854.399,410.165,854.724,410.923,854.311,412.116z"/>
		<path style="fill:#E07F4F;" d="M858.069,415.117c-0.402,1.027-1.138,2.14-2.019,3.191c-0.389,0.462-0.803,0.912-1.237,1.337
			c-0.174,0.174-0.351,0.343-0.526,0.508c0.125-0.139,0.244-0.274,0.36-0.415c0.305-0.362,0.591-0.736,0.856-1.107
			c0.496-0.705,0.899-1.413,1.163-2.084c0.581-1.477,0.314-2.344,0.303-2.38c-0.452-1.372-2.789-0.507-6.1,2.324
			c-0.006,0.003-0.007,0.007-0.013,0.01c-0.342,0.346-0.711,0.669-1.092,0.974c-0.034,0.031-0.066,0.059-0.1,0.09
			c0.007-0.007,0.015-0.019,0.024-0.03c0.081-0.105,0.174-0.217,0.266-0.328c0.415-0.412,0.818-0.799,1.213-1.161
			c0.191-0.183,0.383-0.356,0.579-0.523c0.173-0.156,0.344-0.308,0.513-0.451c0.006-0.003,0.007-0.007,0.013-0.01
			c3.311-2.832,5.648-3.697,6.1-2.324C858.383,412.774,858.65,413.64,858.069,415.117z"/>
		<path style="fill:#E07F4F;" d="M857.119,423.542c0.57-0.686,1.019-1.407,1.261-2.095c0.413-1.193,0.083-1.948,0.07-1.98
			c-0.417-0.91-1.751-0.832-3.636,0.179c-0.174,0.174-0.351,0.343-0.526,0.508c0.125-0.139,0.244-0.274,0.36-0.415
			c0.305-0.362,0.591-0.736,0.856-1.107c0.185-0.119,0.369-0.224,0.547-0.322c1.969-1.096,3.371-1.209,3.803-0.271
			c0.013,0.033,0.344,0.788-0.07,1.98C859.365,421.209,858.331,422.488,857.119,423.542z"/>
		<path style="fill:#E07F4F;" d="M860.936,424.991c-0.344,0.51-0.849,1.01-1.437,1.474c0.014-0.014,0.024-0.03,0.034-0.046
			c0.604-0.892,0.538-1.534,0.533-1.563c-0.13-1.057-2.001-0.875-4.859,0.538c0.588-0.464,1.154-0.992,1.647-1.543
			c2.72-1.306,4.489-1.447,4.615-0.423C861.474,423.458,861.54,424.1,860.936,424.991z"/>
		<path style="fill:#FFA471;" d="M868.048,405.199c-5.361-2.658-10.363-1.656-12.768-1.289c-2.972,0.454-4.988,1.605-5.076,2.597
			c-0.086,0.958,3.9,1.318,6.109,1.496c6.893,0.557,9.818,3.521,14.358,7.734c1.041,0.966,2.585,1.146,3.828,0.46
			c2.106-1.163,4.218-1.633,7.805-2.648c-1.248-1.969-0.803-4.803-2.051-6.772c-0.426,0.438-5.203,0.964-8.64,0.51
			C870.773,407.175,868.626,405.502,868.048,405.199z"/>
		<path style="fill:#E07F4F;" d="M872.796,416.073c0.198,0.191,0.417,0.355,0.648,0.486c-0.987,0.171-2.015-0.117-2.772-0.822
			c-4.544-4.213-7.468-7.176-14.36-7.735c-2.207-0.179-6.193-0.536-6.109-1.496c0.089-0.991,2.105-2.143,5.076-2.597
			c1.54-0.233,4.134-0.728,7.203-0.361c-2.02-0.03-3.714,0.243-4.836,0.394c-2.981,0.394-5.021,1.506-5.129,2.496
			c-0.105,0.953,3.873,1.393,6.079,1.618C865.478,408.753,868.341,411.771,872.796,416.073z"/>
		<path style="fill:#E07F4F;" d="M873.331,407.431c-0.59-0.025-1.173-0.072-1.719-0.144c-0.84-0.111-2.988-1.785-3.564-2.087
			c-1.933-0.956-3.815-1.44-5.547-1.649c2.316,0.031,5.059,0.462,7.884,1.936C870.853,405.744,872.344,406.929,873.331,407.431z"/>
	</g>
	<path style="opacity:0.31;fill:#455464;" d="M848.02,456.25c-30.856,8.376-79.003,3.544-96.696,15.437
		c-6.288,4.219,3.249-37.21,1.519-89.046c0.094-0.121,0.188-0.237,0.287-0.354c9.089,0.412,78.666,3.96,82.014,24.61
		c0.296,1.821,0.094,3.893-0.896,6.264c-27.974,2.313-48.554,3.776-61.399,4.027c-1.923,0.036-6.01,0.094-9.859,2.685
		c-8.045,5.419-9.568,17.562-8.515,25.504c0.56,4.224,1.165,8.783,4.93,12.081c5.495,4.814,14.364,2.653,18.375,1.79
		c38.838-8.367,62.335,3.266,71.258-11.634c0.847-1.414,1.779-3.423,2.272-6.233C852.753,449.923,852.627,454.997,848.02,456.25z"/>
	<path style="fill:#526473;" d="M776.829,364.026c-0.13,1.172-0.278,2.291-0.448,3.347c-0.085,0.537-0.179,1.061-0.278,1.562
		c-2.528,12.846-25.084,23.956-28.786,17.258c-0.004-0.004-0.004-0.009-0.004-0.013c-0.054-0.089-0.099-0.179-0.139-0.273
		c-3.975-9.012-16.654-92.053-10.554-97.047c3.782-3.087,16.093-6.77,25.81-2.206c5.965,2.801,10.953,8.703,12.392,19.755
		C774.821,306.408,779.047,343.488,776.829,364.026z"/>
	<path style="fill:#526473;" d="M836.914,410.06c0,0-84.367-15.092-89.158-22.865c-0.193-0.313-0.341-0.649-0.439-1.002
		c-0.004-0.004-0.004-0.009-0.004-0.013c-1.941-6.703,11.701-20.095,23.824-22.131c1.963-0.331,3.881-0.362,5.692-0.022
		c1.053,0.197,2.066,0.523,3.03,0.989c5.167,2.501,31.224,21.218,49.791,28.802c4.289,1.75,8.174,2.908,11.316,3.137
		C841.105,404.413,836.914,410.06,836.914,410.06z"/>
	<path style="opacity:0.31;fill:#455464;" d="M829.65,393.817c-11.146-3.119-23.524-7.857-36.185-15.11
		c-6.386-3.656-12.065-7.513-17.084-11.334c-0.13-0.098-0.264-0.201-0.394-0.3c-1.591,0.801-4.042,1.812-7.171,2.237
		c-3.088,0.421-7.054,0.295-7.171-0.447c-0.076-0.497,1.537-1.468,9.411-3.579c0.027-0.371,0.054-0.783,0.081-1.235
		c0.56-8.546,1.905-31.089,1.712-52.906c-0.036-4.318-0.184-11.191-4.482-17.898c-1.757-2.738-3.85-4.9-5.938-6.591
		c5.965,2.801,10.953,8.703,12.392,19.755c0,0,4.226,37.08,2.008,57.618c1.053,0.197,2.066,0.523,3.03,0.989
		C785.026,367.516,811.082,386.233,829.65,393.817z"/>
</g>
</svg>
