<svg xmlns="http://www.w3.org/2000/svg" width="32" height="32" fill-rule="evenodd" stroke-linejoin="round" stroke-miterlimit="2" clip-rule="evenodd" id="hotel">
  <path d="M188.174,28L188.174,8C188.174,7.637 188.371,7.302 188.688,7.126L197.688,2.126C197.998,1.954 198.376,1.958 198.681,2.138C198.986,2.318 199.174,2.646 199.174,3L199.174,12.485L199.593,12.186C199.94,11.938 200.408,11.938 200.755,12.186L201.174,12.485L201.174,3C201.174,2.646 201.361,2.318 201.667,2.138C201.972,1.958 202.35,1.954 202.66,2.126L211.66,7.126C211.977,7.302 212.174,7.637 212.174,8L212.174,28L213.171,28C213.723,28 214.171,28.448 214.171,29C214.171,29.552 213.723,30 213.171,30L187.174,30C186.622,30 186.174,29.552 186.174,29C186.174,28.448 186.622,28 187.174,28L188.174,28ZM210.174,28L210.174,8.588L203.174,4.7L203.174,13.914L207.755,17.186C208.018,17.374 208.174,17.677 208.174,18L208.174,28L210.174,28ZM197.174,13.914L197.174,4.7L190.174,8.588L190.174,28L192.174,28L192.174,18C192.174,17.677 192.33,17.374 192.593,17.186L197.174,13.914ZM206.174,28L206.174,18.515L200.174,14.229L194.174,18.515L194.174,28L206.174,28ZM197.174,24L198.174,24C198.726,24 199.174,23.552 199.174,23C199.174,22.448 198.726,22 198.174,22L197.174,22C196.622,22 196.174,22.448 196.174,23C196.174,23.552 196.622,24 197.174,24ZM202.174,24L203.174,24C203.726,24 204.174,23.552 204.174,23C204.174,22.448 203.726,22 203.174,22L202.174,22C201.622,22 201.174,22.448 201.174,23C201.174,23.552 201.622,24 202.174,24ZM197.174,20L198.174,20C198.726,20 199.174,19.552 199.174,19C199.174,18.448 198.726,18 198.174,18L197.174,18C196.622,18 196.174,18.448 196.174,19C196.174,19.552 196.622,20 197.174,20ZM202.174,20L203.174,20C203.726,20 204.174,19.552 204.174,19C204.174,18.448 203.726,18 203.174,18L202.174,18C201.622,18 201.174,18.448 201.174,19C201.174,19.552 201.622,20 202.174,20Z" transform="translate(-184.174)"></path>
</svg>
